<?xml version="1.0" standalone="no"?>
<!DOCTYPE svg PUBLIC "-//W3C//DTD SVG 20010904//EN"
 "http://www.w3.org/TR/2001/REC-SVG-20010904/DTD/svg10.dtd">
<svg version="1.0" xmlns="http://www.w3.org/2000/svg"
 width="500.000000pt" height="500.000000pt" viewBox="0 0 500.000000 500.000000"
 preserveAspectRatio="xMidYMid meet">
<metadata>
Created by potrace 1.11, written by Peter Selinger 2001-2013
</metadata>
<g transform="translate(0.000000,500.000000) scale(0.100000,-0.100000)"
fill="#000000" stroke="none">
<path d="M2390 4606 c-3 -2 -34 -7 -70 -10 -279 -23 -638 -153 -898 -323 -132
-86 -334 -264 -436 -384 -70 -82 -172 -226 -214 -300 -72 -128 -152 -300 -167
-359 0 -3 -10 -34 -22 -70 -38 -113 -64 -232 -81 -370 -9 -70 -9 -407 0 -480
19 -150 73 -373 122 -504 58 -151 215 -440 249 -454 4 -2 7 -10 7 -17 0 -7 4
-15 8 -17 4 -2 30 -32 57 -68 63 -82 218 -237 312 -313 297 -240 683 -404
1038 -442 33 -4 71 -8 85 -11 36 -6 317 -5 370 1 70 9 232 34 258 40 12 3 30
7 40 9 174 39 462 164 627 271 120 78 268 200 355 290 148 156 307 367 313
416 2 21 -11 30 -143 102 -30 16 -59 33 -65 37 -17 12 -143 80 -149 80 -3 0
-11 -12 -19 -26 -13 -25 -14 -24 -56 68 -55 118 -63 141 -116 326 -46 161 -68
207 -116 245 l-29 23 -1 671 0 672 -117 0 c-74 -1 -122 -5 -131 -12 -11 -9
-13 -9 -8 0 10 16 -212 16 -232 0 -11 -9 -13 -9 -8 0 6 9 -17 11 -89 10 l-97
-2 -2 -42 c-1 -23 2 -40 6 -37 5 3 9 0 9 -5 0 -6 -3 -11 -7 -11 -5 0 -8 -29
-8 -64 0 -40 4 -62 10 -59 6 3 4 0 -2 -8 -7 -7 -13 -17 -13 -22 0 -4 6 -5 13
-1 10 6 10 4 0 -7 -15 -16 -17 -33 -3 -24 6 3 10 1 10 -4 0 -6 -3 -11 -7 -11
-5 0 -9 -11 -9 -24 -1 -18 2 -23 15 -19 14 4 14 3 1 -9 -16 -14 -22 -108 -7
-108 5 0 5 -5 1 -11 -10 -17 -11 -50 -3 -81 6 -22 4 -26 -9 -21 -10 4 -30 17
-46 30 -40 33 -162 90 -221 103 -65 15 -236 11 -293 -7 -62 -18 -122 -48 -182
-89 -27 -19 -52 -34 -55 -34 -4 0 -5 12 -3 27 3 25 0 28 -29 28 -17 0 -34 3
-37 6 -4 3 6 5 21 4 42 -3 56 4 42 22 -9 10 -9 17 -1 25 8 8 8 17 1 30 -5 10
-6 18 -2 18 4 0 8 25 8 55 0 30 -4 55 -9 55 -6 0 -5 5 1 11 6 6 8 23 3 44 -5
23 -4 36 4 39 7 3 6 5 -2 5 -7 1 -10 6 -7 12 12 18 12 68 1 73 -7 3 -8 7 -1
13 6 4 10 28 10 53 l-1 45 -94 2 c-62 2 -99 -2 -109 -10 -11 -9 -13 -9 -8 0
10 16 -212 16 -232 0 -11 -9 -13 -9 -8 0 5 8 -25 11 -117 12 -122 0 -125 -1
-124 -22 1 -12 6 -28 12 -36 8 -11 8 -13 -1 -8 -13 8 -13 -40 1 -62 6 -9 5
-12 -2 -7 -7 4 -10 -10 -9 -43 0 -28 4 -48 8 -45 4 2 11 0 14 -6 4 -6 1 -9 -6
-8 -10 2 -14 -13 -15 -54 -1 -38 2 -58 10 -58 7 0 7 -3 1 -8 -13 -9 -17 -134
-4 -126 5 3 9 0 9 -5 0 -6 -4 -11 -8 -11 -11 0 -9 -101 2 -119 6 -9 5 -12 -2
-7 -12 7 -11 -42 2 -63 6 -10 5 -12 -2 -7 -8 5 -12 -1 -12 -14 0 -12 5 -18 10
-15 6 3 10 1 10 -4 0 -6 -4 -11 -8 -11 -4 0 -8 -20 -8 -45 -1 -27 3 -45 10
-45 7 0 8 -3 1 -8 -12 -8 -16 -194 -4 -186 4 2 11 0 14 -6 4 -6 1 -9 -7 -8
-10 2 -13 -16 -14 -74 0 -43 3 -75 7 -72 4 2 11 0 14 -6 4 -6 1 -9 -7 -8 -9 2
-13 -11 -14 -44 -1 -27 2 -45 7 -42 5 3 9 0 9 -5 0 -6 -5 -11 -10 -11 -6 0
-10 -6 -9 -12 4 -31 -3 -44 -30 -60 -42 -23 -95 -137 -117 -251 -20 -104 -149
-417 -164 -400 -4 4 -27 46 -50 93 -23 47 -47 96 -54 110 -36 69 -97 276 -110
375 -3 22 -10 69 -15 105 -9 64 -7 341 2 390 2 14 8 45 11 69 37 229 155 499
309 706 136 184 366 373 577 475 244 119 469 168 740 163 91 -1 179 -4 195 -7
290 -39 556 -146 785 -315 139 -103 306 -287 399 -439 18 -28 35 -52 38 -52 5
0 51 25 237 129 60 34 113 61 118 61 24 0 -8 57 -119 213 -230 321 -586 589
-963 725 -138 50 -219 70 -430 107 -43 8 -434 18 -440 11z m-880 -927 c0 -5
-4 -9 -8 -9 -5 0 -9 7 -9 15 0 8 4 12 9 9 4 -3 8 -9 8 -15z m1583 7 c11 1 16
0 13 -4 -13 -12 -36 -10 -48 6 -11 15 -11 15 2 6 8 -6 23 -10 33 -8z m-1362
-23 c13 -16 12 -17 -3 -4 -17 13 -22 21 -14 21 2 0 10 -8 17 -17z m240 0 c13
-16 12 -17 -3 -4 -17 13 -22 21 -14 21 2 0 10 -8 17 -17z m1075 -6 c0 -13 -6
-24 -13 -24 -6 0 -9 5 -5 11 4 6 7 14 8 19 5 26 10 23 10 -6z m125 6 c13 -16
12 -17 -3 -4 -17 13 -22 21 -14 21 2 0 10 -8 17 -17z m240 0 c13 -16 12 -17
-3 -4 -17 13 -22 21 -14 21 2 0 10 -8 17 -17z m-1844 -10 c0 -9 -4 -10 -14 -2
-7 6 -13 12 -13 14 0 1 6 2 13 2 8 0 14 -6 14 -14z m93 13 c0 -2 -8 -10 -17
-17 -16 -13 -17 -12 -4 4 13 16 21 21 21 13z m147 -13 c0 -9 -4 -10 -14 -2 -7
6 -13 12 -13 14 0 1 6 2 13 2 8 0 14 -6 14 -14z m87 5 c-3 -4 -9 -8 -15 -8 -5
0 -9 4 -9 8 0 5 7 9 15 9 8 0 12 -4 9 -9z m153 -5 c0 -9 -4 -10 -14 -2 -7 6
-13 12 -13 14 0 1 6 2 13 2 8 0 14 -6 14 -14z m963 5 c0 -4 -4 -8 -9 -8 -6 0
-12 4 -15 8 -3 5 1 9 9 9 8 0 15 -4 15 -9z m237 -5 c0 -9 -4 -10 -14 -2 -7 6
-13 12 -13 14 0 1 6 2 13 2 8 0 14 -6 14 -14z m87 5 c-3 -4 -9 -8 -15 -8 -5 0
-9 4 -9 8 0 5 7 9 15 9 8 0 12 -4 9 -9z m153 -5 c0 -9 -4 -10 -14 -2 -7 6 -13
12 -13 14 0 1 6 2 13 2 8 0 14 -6 14 -14z m-1960 -8 c0 -8 -4 -12 -9 -9 -5 3
-6 10 -3 15 9 13 12 11 12 -6z m2018 -4 c3 -5 2 -12 -3 -15 -5 -3 -9 1 -9 9 0
17 3 19 12 6z m40 -9 c-3 -3 -11 0 -18 7 -9 10 -8 11 6 5 10 -3 15 -9 12 -12z
m55 12 c0 -8 -19 -13 -24 -6 -3 5 1 9 9 9 8 0 15 -2 15 -3z m-551 -17 c8 -10
7 -14 -2 -14 -8 0 -14 6 -14 14 0 7 1 13 2 13 2 0 8 -6 14 -13z m-1284 -14
c-1 -10 3 -25 9 -33 9 -13 9 -13 -6 -2 -13 10 -16 26 -9 50 4 11 9 -2 6 -15z
m175 13 c0 -2 -8 -10 -17 -17 -16 -13 -17 -12 -4 4 13 16 21 21 21 13z m1265
-13 c-1 -10 3 -25 9 -33 9 -13 9 -13 -6 -2 -13 10 -16 26 -9 50 4 11 9 -2 6
-15z m175 13 c0 -2 -8 -10 -17 -17 -16 -13 -17 -12 -4 4 13 16 21 21 21 13z
m-1733 -19 c0 -8 -13 -13 -33 -13 -18 0 -31 4 -28 8 2 4 13 5 24 3 11 -2 22 0
25 6 8 12 12 11 12 -4z m-104 -17 c10 -12 9 -12 -3 -3 -8 6 -23 9 -33 8 -9 -2
-15 0 -12 5 7 12 33 6 48 -10z m480 0 c10 -12 9 -12 -3 -3 -8 6 -23 9 -33 8
-9 -2 -15 0 -12 5 7 12 33 6 48 -10z m67 10 c0 -5 -2 -10 -4 -10 -3 0 -8 5
-11 10 -3 6 -1 10 4 10 6 0 11 -4 11 -10z m1035 1 c3 -5 2 -12 -3 -15 -5 -3
-9 1 -9 9 0 17 3 19 12 6z m338 -11 c10 -12 9 -12 -3 -3 -8 6 -23 9 -33 8 -9
-2 -15 0 -12 5 7 12 33 6 48 -10z m111 9 c3 -2 -15 -5 -39 -5 -24 0 -42 3 -40
6 5 8 72 7 79 -1z m-1724 -3 c0 -2 -8 -10 -17 -17 -16 -13 -17 -12 -4 4 13 16
21 21 21 13z m1440 0 c0 -2 -8 -10 -17 -17 -16 -13 -17 -12 -4 4 13 16 21 21
21 13z m-325 -14 c-3 -3 0 -11 6 -19 17 -20 5 -16 -14 5 -15 16 -15 19 -2 19
8 0 13 -3 10 -5z m125 -4 c0 -4 -4 -8 -9 -8 -6 0 -12 4 -15 8 -3 5 1 9 9 9 8
0 15 -4 15 -9z m-44 -13 c-1 -8 -5 -17 -8 -21 -5 -4 -4 16 1 34 3 9 9 -1 7
-13z m541 0 c0 -8 -4 -12 -9 -9 -5 3 -6 10 -3 15 9 13 12 11 12 -6z m-1957 -7
c0 -4 -4 -8 -9 -8 -6 0 -12 4 -15 8 -3 5 1 9 9 9 8 0 15 -4 15 -9z m124 3 c-8
-8 -34 -10 -38 -2 -3 4 6 7 19 7 14 0 22 -2 19 -5z m261 0 c-9 -8 -36 -10 -30
-2 2 4 11 8 20 8 8 0 13 -3 10 -6z m89 -7 c3 -8 2 -12 -4 -9 -6 3 -10 10 -10
16 0 14 7 11 14 -7z m906 -9 c14 -19 14 -19 -2 -6 -10 7 -18 18 -18 24 0 6 1
8 3 6 1 -2 9 -13 17 -24z m120 15 c0 -5 -2 -10 -4 -10 -3 0 -8 5 -11 10 -3 6
-1 10 4 10 6 0 11 -4 11 -10z m214 1 c-7 -8 -54 -9 -59 -2 -2 4 12 7 30 7 19
0 32 -3 29 -5z m91 -1 c-3 -5 -12 -10 -18 -10 -7 0 -6 4 3 10 19 12 23 12 15
0z m-1545 -16 c0 -8 -19 -13 -24 -6 -3 5 1 9 9 9 8 0 15 -2 15 -3z m40 -2 c0
-5 -7 -9 -15 -9 -8 0 -12 4 -9 9 3 4 9 8 15 8 5 0 9 -4 9 -8z m-460 -23 c0 -5
-4 -9 -8 -9 -5 0 -9 7 -9 15 0 8 4 12 9 9 4 -3 8 -9 8 -15z m240 0 c0 -5 -4
-9 -8 -9 -5 0 -9 7 -9 15 0 8 4 12 9 9 4 -3 8 -9 8 -15z m1637 6 c0 -8 -4 -15
-9 -15 -10 0 -11 14 -1 23 9 10 10 9 10 -8z m-1737 -5 c0 -5 -5 -10 -11 -10
-5 0 -7 5 -4 10 3 6 8 10 11 10 2 0 4 -4 4 -10z m35 0 c3 -5 1 -10 -4 -10 -6
0 -11 5 -11 10 0 6 2 10 4 10 3 0 8 -4 11 -10z m102 -7 c0 -9 -4 -10 -14 -2
-7 6 -13 12 -13 14 0 1 6 2 13 2 8 0 14 -6 14 -14z m98 8 c3 -5 2 -12 -3 -15
-5 -3 -9 1 -9 9 0 17 3 19 12 6z m249 -2 c-2 -4 -12 -6 -22 -4 -9 1 -24 -3
-32 -9 -13 -9 -13 -8 -3 5 12 14 66 22 57 8z m1113 -4 c0 -8 -4 -12 -9 -9 -5
3 -6 10 -3 15 9 13 12 11 12 -6z m113 10 c0 -2 -6 -8 -13 -14 -10 -8 -14 -7
-14 2 0 8 6 14 14 14 7 0 13 -1 13 -2z m90 -5 c0 -5 -5 -10 -11 -10 -5 0 -7 5
-4 10 3 6 8 10 11 10 2 0 4 -4 4 -10z m40 6 c0 -3 -4 -8 -10 -11 -5 -3 -10 -1
-10 4 0 6 5 11 10 11 6 0 10 -2 10 -4z m-1556 -28 c-3 -4 -9 -8 -15 -8 -5 0
-9 4 -9 8 0 5 7 9 15 9 8 0 12 -4 9 -9z m1116 -2 c-7 -7 -13 -7 -20 0 -6 6 -3
10 10 10 13 0 16 -4 10 -10z m124 2 c-3 -4 -9 -8 -15 -8 -5 0 -9 4 -9 8 0 5 7
9 15 9 8 0 12 -4 9 -9z m36 2 c0 -5 -2 -10 -4 -10 -3 0 -8 5 -11 10 -3 6 -1
10 4 10 6 0 11 -4 11 -10z m-203 -15 c0 -8 -4 -15 -9 -15 -10 0 -11 14 -1 23
9 10 10 9 10 -8z m78 -29 c-1 -51 -11 -52 -11 -1 0 24 3 42 6 40 4 -2 6 -20 5
-39z m-1498 19 c0 -8 -4 -12 -9 -9 -5 3 -6 10 -3 15 9 13 12 11 12 -6z m193 9
c0 -8 -19 -13 -24 -6 -3 5 1 9 9 9 8 0 15 -2 15 -3z m110 2 c0 -3 -4 -8 -10
-11 -5 -3 -10 -1 -10 4 0 6 5 11 10 11 6 0 10 -2 10 -4z m80 -6 c0 -5 -5 -10
-11 -10 -5 0 -7 5 -4 10 3 6 8 10 11 10 2 0 4 -4 4 -10z m125 0 c3 -6 -1 -7
-9 -4 -18 7 -21 14 -7 14 6 0 13 -4 16 -10z m1155 6 c0 -3 -4 -8 -10 -11 -5
-3 -10 -1 -10 4 0 6 5 11 10 11 6 0 10 -2 10 -4z m120 -2 c0 -8 -19 -13 -24
-6 -3 5 1 9 9 9 8 0 15 -2 15 -3z m175 -3 c3 -5 2 -12 -3 -15 -5 -3 -9 1 -9 9
0 17 3 19 12 6z m40 -9 c-3 -3 -11 0 -18 7 -9 10 -8 11 6 5 10 -3 15 -9 12
-12z m-1845 -6 c0 -2 -8 -10 -17 -17 -16 -13 -17 -12 -4 4 13 16 21 21 21 13z
m1384 -12 c3 -8 2 -12 -4 -9 -6 3 -10 10 -10 16 0 14 7 11 14 -7z m-1054 -15
c0 -5 -4 -9 -8 -9 -5 0 -9 7 -9 15 0 8 4 12 9 9 4 -3 8 -9 8 -15z m37 8 c0 -8
-6 -14 -14 -14 -9 0 -10 4 -2 14 6 7 12 13 14 13 1 0 2 -6 2 -13z m1260 0 c0
-8 -13 -13 -33 -13 -18 0 -31 4 -28 8 2 4 13 5 24 3 11 -2 22 0 25 6 8 12 12
11 12 -4z m-1783 -8 c3 -2 -15 -5 -39 -5 -24 0 -42 3 -40 6 5 8 72 7 79 -1z
m239 -9 c10 -12 9 -12 -3 -3 -8 6 -23 9 -33 8 -9 -2 -15 0 -12 5 7 12 33 6 48
-10z m147 16 c0 -3 -4 -8 -10 -11 -5 -3 -10 -1 -10 4 0 6 5 11 10 11 6 0 10
-2 10 -4z m1644 -7 c3 -2 -15 -5 -39 -5 -24 0 -42 3 -40 6 5 8 72 7 79 -1z
m-2007 -16 c-4 -3 1 -16 10 -27 18 -21 18 -21 -4 -2 -20 16 -23 36 -6 36 4 0
3 -3 0 -7z m47 -5 c-3 -4 -9 -8 -15 -8 -5 0 -9 4 -9 8 0 5 7 9 15 9 8 0 12 -4
9 -9z m240 0 c-3 -4 -9 -8 -15 -8 -5 0 -9 4 -9 8 0 5 7 9 15 9 8 0 12 -4 9 -9z
m1230 4 c3 -5 -1 -9 -9 -9 -8 0 -12 4 -9 9 3 4 7 8 9 8 2 0 6 -4 9 -8z m366
-4 c0 -4 -4 -8 -9 -8 -6 0 -12 4 -15 8 -3 5 1 9 9 9 8 0 15 -4 15 -9z m34 3
c3 -4 -4 -17 -17 -27 -22 -19 -22 -19 -4 2 9 11 14 24 10 27 -3 4 -4 7 0 7 3
0 8 -4 11 -9z m-1836 -26 c-3 -3 -9 2 -12 12 -6 14 -5 15 5 6 7 -7 10 -15 7
-18z m1622 4 c0 -5 -4 -9 -8 -9 -5 0 -9 7 -9 15 0 8 4 12 9 9 4 -3 8 -9 8 -15z
m-1484 -1 c3 -4 -2 -5 -13 -4 -10 2 -25 -2 -33 -8 -13 -9 -13 -9 -2 6 12 16
35 18 48 6z m1240 0 c4 -7 4 -10 -1 -6 -4 4 -15 2 -24 -5 -14 -11 -14 -10 -2
6 16 20 18 21 27 5z m275 -5 c13 -16 12 -17 -3 -4 -17 13 -22 21 -14 21 2 0
10 -8 17 -17z m234 7 c-3 -5 -12 -10 -18 -10 -7 0 -6 4 3 10 19 12 23 12 15 0z
m-1522 -22 c-6 -7 -9 -21 -8 -31 2 -9 0 -15 -5 -12 -13 8 1 55 17 55 3 0 1 -6
-4 -12z m1112 -33 c1 -19 -1 -32 -4 -29 -3 3 -6 21 -6 39 -1 19 1 32 4 29 3
-3 6 -21 6 -39z m-1598 20 c0 -8 -4 -12 -9 -9 -5 3 -6 10 -3 15 9 13 12 11 12
-6z m102 2 c8 -10 7 -14 -2 -14 -8 0 -14 6 -14 14 0 7 1 13 2 13 2 0 8 -6 14
-13z m1798 0 c0 -8 -15 -13 -43 -13 -23 0 -41 3 -38 7 2 4 17 5 34 4 17 -1 33
1 36 6 7 12 11 11 11 -4z m98 4 c3 -5 2 -12 -3 -15 -5 -3 -9 1 -9 9 0 17 3 19
12 6z m-1822 -21 c10 -12 9 -12 -3 -3 -8 6 -23 9 -33 8 -9 -2 -15 0 -12 5 7
12 33 6 48 -10z m101 11 c-7 -8 -74 -9 -69 -1 2 3 19 6 39 6 19 0 33 -3 30 -5z
m146 0 c0 -6 -4 -12 -8 -15 -5 -3 -9 1 -9 9 0 8 4 15 9 15 4 0 8 -4 8 -9z
m135 -1 c3 -5 1 -10 -4 -10 -6 0 -11 5 -11 10 0 6 2 10 4 10 3 0 8 -4 11 -10z
m929 2 c3 -5 -1 -9 -9 -9 -8 0 -12 4 -9 9 3 4 7 8 9 8 2 0 6 -4 9 -8z m290 -3
c3 -3 -10 -5 -29 -4 -18 0 -36 3 -39 6 -3 3 10 5 29 4 18 0 36 -3 39 -6z
m-1813 -16 c13 -16 12 -17 -3 -4 -10 7 -18 15 -18 17 0 8 8 3 21 -13z m557 -8
c-3 -3 -9 2 -12 12 -6 14 -5 15 5 6 7 -7 10 -15 7 -18z m1116 -1 c3 -8 2 -12
-4 -9 -6 3 -10 10 -10 16 0 14 7 11 14 -7z m406 12 c0 -2 -7 -7 -16 -10 -8 -3
-12 -2 -9 4 6 10 25 14 25 6z m-1663 -21 c0 -8 -4 -15 -9 -15 -10 0 -11 14 -1
23 9 10 10 9 10 -8z m1040 0 c0 -8 -4 -12 -9 -9 -5 3 -6 10 -3 15 9 13 12 11
12 -6z m83 11 c0 -2 -8 -10 -17 -17 -16 -13 -17 -12 -4 4 13 16 21 21 21 13z
m318 -21 c-3 -3 -9 2 -12 12 -6 14 -5 15 5 6 7 -7 10 -15 7 -18z m-1258 5 c0
-5 -2 -10 -4 -10 -3 0 -8 5 -11 10 -3 6 -1 10 4 10 6 0 11 -4 11 -10z m-245
-55 c1 -19 -1 -32 -4 -29 -3 3 -6 21 -6 39 -1 19 1 32 4 29 3 -3 6 -21 6 -39z
m35 -1 c-11 -18 -11 -18 -6 0 4 10 1 26 -6 35 -11 14 -10 14 6 0 15 -14 16
-20 6 -35z m1325 12 c0 -19 -3 -37 -6 -40 -4 -5 -4 62 0 72 4 10 7 -4 6 -32z
m281 8 c1 -9 0 -13 -4 -10 -3 4 -7 14 -8 22 -1 9 0 13 4 10 3 -4 7 -14 8 -22z
m40 -9 c-1 -8 -5 -17 -8 -21 -4 -3 -5 2 -4 13 2 10 -2 25 -8 33 -9 13 -9 13 6
2 9 -7 15 -19 14 -27z m-1825 11 c-12 -14 -35 -16 -47 -3 -4 3 3 5 14 2 12 -2
24 0 27 6 4 5 9 9 12 9 3 0 0 -6 -6 -14z m312 0 c11 1 16 0 13 -4 -13 -12 -36
-10 -48 6 -11 15 -11 15 2 6 8 -6 23 -10 33 -8z m1338 -3 c13 -16 12 -17 -3
-4 -10 7 -18 15 -18 17 0 8 8 3 21 -13z m-1857 -1 c3 -5 -1 -9 -9 -9 -8 0 -12
4 -9 9 3 4 7 8 9 8 2 0 6 -4 9 -8z m76 4 c0 -2 -7 -7 -16 -10 -8 -3 -12 -2 -9
4 6 10 25 14 25 6z m60 -5 c0 -6 -4 -12 -8 -15 -5 -3 -9 1 -9 9 0 8 4 15 9 15
4 0 8 -4 8 -9z m300 3 c0 -8 -19 -13 -24 -6 -3 5 1 9 9 9 8 0 15 -2 15 -3z
m1134 -3 c-7 -8 -54 -9 -59 -2 -2 4 12 7 30 7 19 0 32 -3 29 -5z m363 -6 c0
-8 -4 -12 -9 -9 -4 3 -8 9 -8 15 0 5 4 9 8 9 5 0 9 -7 9 -15z m-1702 -4 c3 -5
2 -12 -3 -15 -5 -3 -9 1 -9 9 0 17 3 19 12 6z m1601 -25 c0 -19 -3 -33 -7 -31
-7 5 -4 65 4 65 1 0 3 -15 3 -34z m-1521 16 c-3 -3 0 -10 5 -17 7 -8 5 -12 -5
-12 -8 0 -13 3 -10 5 3 3 0 10 -5 17 -7 8 -5 12 5 12 8 0 13 -3 10 -5z m240
-1 c3 -5 2 -12 -3 -15 -5 -3 -9 1 -9 9 0 17 3 19 12 6z m45 -3 c0 -4 -4 -8 -9
-8 -6 0 -12 4 -15 8 -3 5 1 9 9 9 8 0 15 -4 15 -9z m1080 3 c0 -6 -4 -12 -8
-15 -5 -3 -9 1 -9 9 0 8 4 15 9 15 4 0 8 -4 8 -9z m81 -4 c-6 -8 -9 -16 -6
-19 3 -2 -2 -5 -10 -5 -13 0 -13 3 2 19 19 21 31 25 14 5z m-1700 -14 c13 -16
12 -17 -3 -4 -17 13 -22 21 -14 21 2 0 10 -8 17 -17z m36 2 c0 -8 -4 -15 -9
-15 -10 0 -11 14 -1 23 9 10 10 9 10 -8z m179 0 c-1 -8 -8 -21 -16 -28 -10
-10 -11 -9 -4 3 5 8 9 18 10 23 3 14 4 17 8 17 2 0 3 -7 2 -15z m177 0 c-3 -9
-8 -14 -10 -11 -3 3 -2 9 2 15 9 16 15 13 8 -4z m1124 0 c0 -8 -4 -15 -9 -15
-10 0 -11 14 -1 23 9 10 10 9 10 -8z m219 -3 c-3 -3 -1 -10 4 -17 7 -8 6 -12
-3 -12 -7 0 -13 11 -13 23 0 12 4 20 9 17 4 -3 6 -8 3 -11z m184 -3 c0 -5 -4
-9 -8 -9 -5 0 -9 7 -9 15 0 8 4 12 9 9 4 -3 8 -9 8 -15z m-1986 -5 c3 -8 2
-12 -4 -9 -6 3 -10 10 -10 16 0 14 7 11 14 -7z m1490 8 c3 -5 -1 -9 -9 -9 -8
0 -12 4 -9 9 3 4 7 8 9 8 2 0 6 -4 9 -8z m66 3 c0 -2 -6 -8 -13 -14 -10 -8
-14 -7 -14 2 0 8 6 14 14 14 7 0 13 -1 13 -2z m-1090 -46 c0 -5 -4 -9 -8 -9
-5 0 -9 7 -9 15 0 8 4 12 9 9 4 -3 8 -9 8 -15z m1591 7 c-12 -14 -35 -16 -47
-3 -4 3 3 5 14 2 12 -2 24 0 27 6 4 5 9 9 12 9 3 0 0 -6 -6 -14z m-1971 -6 c0
-7 -66 -7 -74 0 -2 3 13 6 35 6 21 1 39 -2 39 -6z m40 6 c0 -3 -4 -8 -10 -11
-5 -3 -10 -1 -10 4 0 6 5 11 10 11 6 0 10 -2 10 -4z m104 -5 c-7 -8 -54 -9
-49 -1 2 3 15 6 29 6 14 0 23 -2 20 -5z m1340 1 c3 -5 -1 -9 -9 -9 -8 0 -12 4
-9 9 3 4 7 8 9 8 2 0 6 -4 9 -8z m36 4 c0 -3 -4 -8 -10 -11 -5 -3 -10 -1 -10
4 0 6 5 11 10 11 6 0 10 -2 10 -4z m284 -7 c3 -3 -5 -5 -19 -5 -13 0 -22 3
-19 7 4 8 30 6 38 -2z m76 1 c0 -5 -5 -10 -11 -10 -5 0 -7 5 -4 10 3 6 8 10
11 10 2 0 4 -4 4 -10z m34 -6 c3 -8 2 -12 -4 -9 -6 3 -10 10 -10 16 0 14 7 11
14 -7z m110 8 c3 -5 -1 -9 -9 -9 -8 0 -12 4 -9 9 3 4 7 8 9 8 2 0 6 -4 9 -8z
m-1708 -26 c0 -14 -3 -23 -7 -20 -6 3 -6 22 0 42 3 10 7 -2 7 -22z m1359 15
c3 -5 2 -12 -3 -15 -5 -3 -9 1 -9 9 0 17 3 19 12 6z m-1737 -36 c-3 -3 -9 2
-12 12 -6 14 -5 15 5 6 7 -7 10 -15 7 -18z m160 0 c-3 -3 -9 2 -12 12 -6 14
-5 15 5 6 7 -7 10 -15 7 -18z m98 -9 c-2 -38 -12 -39 -12 -1 0 18 3 32 7 30 3
-3 5 -15 5 -29z m299 25 c3 -5 2 -12 -3 -15 -5 -3 -9 1 -9 9 0 17 3 19 12 6z
m1222 -6 c0 -8 -4 -15 -9 -15 -10 0 -11 14 -1 23 9 10 10 9 10 -8z m96 0 c-3
-9 -8 -14 -10 -11 -3 3 -2 9 2 15 9 16 15 13 8 -4z m-1359 -11 c3 -8 2 -12 -4
-9 -6 3 -10 10 -10 16 0 14 7 11 14 -7z m86 12 c0 -2 -7 -7 -16 -10 -8 -3 -12
-2 -9 4 6 10 25 14 25 6z m1360 -5 c0 -6 -4 -12 -8 -15 -5 -3 -9 1 -9 9 0 8 4
15 9 15 4 0 8 -4 8 -9z m-1749 -34 c-10 -9 -11 -8 -5 6 3 10 9 15 12 12 3 -3
0 -11 -7 -18z m83 7 c3 -8 2 -12 -4 -9 -6 3 -10 10 -10 16 0 14 7 11 14 -7z
m1437 -7 c-10 -9 -11 -8 -5 6 3 10 9 15 12 12 3 -3 0 -11 -7 -18z m83 7 c3 -8
2 -12 -4 -9 -6 3 -10 10 -10 16 0 14 7 11 14 -7z m-1854 -15 c0 -5 -4 -9 -8
-9 -5 0 -9 7 -9 15 0 8 4 12 9 9 4 -3 8 -9 8 -15z m160 0 c0 -5 -4 -9 -8 -9
-5 0 -9 7 -9 15 0 8 4 12 9 9 4 -3 8 -9 8 -15z m1557 6 c0 -8 -4 -15 -9 -15
-10 0 -11 14 -1 23 9 10 10 9 10 -8z m100 0 c0 -8 -4 -12 -9 -9 -5 3 -6 10 -3
15 9 13 12 11 12 -6z m140 0 c0 -8 -4 -15 -9 -15 -10 0 -11 14 -1 23 9 10 10
9 10 -8z m80 0 c0 -8 -4 -15 -9 -15 -10 0 -11 14 -1 23 9 10 10 9 10 -8z
m-1483 -6 c3 -2 -15 -5 -39 -5 -24 0 -42 3 -40 6 5 8 72 7 79 -1z m1103 -4 c0
-8 -4 -12 -9 -9 -5 3 -6 10 -3 15 9 13 12 11 12 -6z m243 1 c0 -2 -8 -10 -17
-17 -16 -13 -17 -12 -4 4 13 16 21 21 21 13z m-1566 -14 c3 -5 -1 -9 -9 -9 -8
0 -12 4 -9 9 3 4 7 8 9 8 2 0 6 -4 9 -8z m1366 -17 c14 -19 14 -19 -2 -6 -10
7 -18 18 -18 24 0 6 1 8 3 6 1 -2 9 -13 17 -24z m84 17 c3 -5 -1 -9 -9 -9 -8
0 -12 4 -9 9 3 4 7 8 9 8 2 0 6 -4 9 -8z m-1344 -6 c0 -2 -6 -9 -14 -15 -11
-9 -16 -9 -22 0 -4 7 -3 9 4 5 6 -3 13 -2 17 4 6 10 15 14 15 6z m-270 -12 c0
-8 -19 -13 -24 -6 -3 5 1 9 9 9 8 0 15 -2 15 -3z m40 0 c0 -8 -19 -13 -24 -6
-3 5 1 9 9 9 8 0 15 -2 15 -3z m64 -2 c2 -4 -5 -9 -17 -9 -17 -2 -19 0 -7 7
18 12 18 12 24 2z m1690 -3 c3 -3 -10 -5 -29 -4 -18 0 -36 3 -39 6 -3 3 10 5
29 4 18 0 36 -3 39 -6z m-1508 -33 c-2 -38 -12 -39 -12 -1 0 18 3 32 7 30 3
-3 5 -15 5 -29z m-400 -11 c-1 -8 -5 -17 -8 -21 -4 -3 -5 2 -4 13 2 10 -2 25
-8 33 -9 13 -9 13 6 2 9 -7 15 -19 14 -27z m1679 -9 c-1 -51 -11 -52 -11 -1 0
24 3 42 6 40 4 -2 6 -20 5 -39z m45 38 c0 -8 -19 -13 -24 -6 -3 5 1 9 9 9 8 0
15 -2 15 -3z m240 -8 c-7 -7 -13 -7 -20 0 -6 6 -3 10 10 10 13 0 16 -4 10 -10z
m35 -20 c0 -19 -3 -37 -6 -40 -4 -5 -4 62 0 72 4 10 7 -4 6 -32z m-418 9 c0
-8 -4 -15 -9 -15 -10 0 -11 14 -1 23 9 10 10 9 10 -8z m339 -18 c0 -20 -5 -34
-13 -34 -7 0 -9 5 -5 11 4 6 7 19 8 29 3 41 10 37 10 -6z m-1840 -2 c-1 -13
-4 -27 -7 -30 -5 -4 -4 41 0 53 4 10 8 -2 7 -23z m114 20 c0 -2 -6 -8 -13 -14
-10 -8 -14 -7 -14 2 0 8 6 14 14 14 7 0 13 -1 13 -2z m27 -10 c0 -8 -4 -12 -9
-9 -4 3 -8 9 -8 15 0 5 4 9 8 9 5 0 9 -7 9 -15z m103 5 c0 -5 -5 -10 -11 -10
-5 0 -7 5 -4 10 3 6 8 10 11 10 2 0 4 -4 4 -10z m1550 6 c0 -2 -8 -10 -17 -17
-16 -13 -17 -12 -4 4 13 16 21 21 21 13z m-235 -34 c-1 -9 2 -24 8 -32 9 -12
9 -13 -3 -2 -15 13 -23 65 -9 57 4 -3 6 -13 4 -23z m78 13 c-3 -9 -8 -14 -10
-11 -3 3 -2 9 2 15 9 16 15 13 8 -4z m247 -6 c0 -5 -4 -9 -8 -9 -5 0 -9 7 -9
15 0 8 4 12 9 9 4 -3 8 -9 8 -15z m-1929 -12 c-10 -9 -11 -8 -5 6 3 10 9 15
12 12 3 -3 0 -11 -7 -18z m1786 -2 c0 -8 -4 -15 -9 -15 -10 0 -11 14 -1 23 9
10 10 9 10 -8z m239 0 c-1 -8 -5 -17 -8 -21 -5 -4 -4 16 1 34 3 9 9 -1 7 -13z
m-1861 -13 c-3 -3 -11 0 -18 7 -9 10 -8 11 6 5 10 -3 15 -9 12 -12z m125 14
c0 -3 -4 -8 -10 -11 -5 -3 -10 -1 -10 4 0 6 5 11 10 11 6 0 10 -2 10 -4z m56
-8 c4 -7 3 -10 -1 -5 -5 4 -18 -1 -29 -10 -21 -18 -21 -18 -2 5 22 26 23 26
32 10z m1204 6 c0 -8 -19 -13 -24 -6 -3 5 1 9 9 9 8 0 15 -2 15 -3z m-1581
-17 c8 -10 7 -14 -2 -14 -8 0 -14 6 -14 14 0 7 1 13 2 13 2 0 8 -6 14 -13z
m193 -19 c-13 -13 -64 -20 -56 -7 2 4 13 6 24 4 11 -2 22 0 25 6 4 5 9 9 13 9
3 0 1 -5 -6 -12z m1631 -2 c11 1 16 0 13 -4 -13 -12 -36 -10 -48 6 -11 15 -11
15 2 6 8 -6 23 -10 33 -8z m-1446 -13 c0 -9 -4 -10 -14 -2 -7 6 -13 12 -13 14
0 1 6 2 13 2 8 0 14 -6 14 -14z m1173 11 c0 -8 -19 -13 -24 -6 -3 5 1 9 9 9 8
0 15 -2 15 -3z m70 -4 c0 -5 -2 -10 -4 -10 -3 0 -8 5 -11 10 -3 6 -1 10 4 10
6 0 11 -4 11 -10z m444 2 c3 -5 -1 -9 -9 -9 -8 0 -12 4 -9 9 3 4 7 8 9 8 2 0
6 -4 9 -8z m-2024 -18 c0 -8 -19 -13 -24 -6 -3 5 1 9 9 9 8 0 15 -2 15 -3z
m284 -6 c-3 -4 -9 -8 -15 -8 -5 0 -9 4 -9 8 0 5 7 9 15 9 8 0 12 -4 9 -9z
m-184 -19 c0 -5 -4 -9 -8 -9 -5 0 -9 7 -9 15 0 8 4 12 9 9 4 -3 8 -9 8 -15z
m1540 0 c0 -5 -4 -9 -8 -9 -5 0 -9 7 -9 15 0 8 4 12 9 9 4 -3 8 -9 8 -15z
m177 6 c0 -8 -4 -15 -9 -15 -10 0 -11 14 -1 23 9 10 10 9 10 -8z m-1862 -5 c3
-5 1 -10 -4 -10 -6 0 -11 5 -11 10 0 6 2 10 4 10 3 0 8 -4 11 -10z m176 -7
c13 -16 12 -17 -3 -4 -10 7 -18 15 -18 17 0 8 8 3 21 -13z m79 11 c0 -8 -19
-13 -24 -6 -3 5 1 9 9 9 8 0 15 -2 15 -3z m1501 -17 c-10 -9 -11 -8 -5 6 3 10
9 15 12 12 3 -3 0 -11 -7 -18z m-1718 -2 c-3 -9 -8 -14 -10 -11 -3 3 -2 9 2
15 9 16 15 13 8 -4z m1691 -3 c3 -5 -1 -9 -9 -9 -8 0 -15 4 -15 9 0 4 4 8 9 8
6 0 12 -4 15 -8z m-1727 -17 c0 -8 -4 -12 -9 -9 -5 3 -6 10 -3 15 9 13 12 11
12 -6z m320 0 c0 -8 -4 -12 -9 -9 -5 3 -6 10 -3 15 9 13 12 11 12 -6z m1623
-6 c0 -5 -4 -9 -8 -9 -5 0 -9 7 -9 15 0 8 4 12 9 9 4 -3 8 -9 8 -15z m-1766 0
c3 -3 -10 -5 -29 -4 -18 0 -36 3 -39 6 -3 3 10 5 29 4 18 0 36 -3 39 -6z
m1666 1 c0 -5 -5 -10 -11 -10 -5 0 -7 5 -4 10 3 6 8 10 11 10 2 0 4 -4 4 -10z
m35 0 c3 -5 1 -10 -4 -10 -6 0 -11 5 -11 10 0 6 2 10 4 10 3 0 8 -4 11 -10z
m-1914 -17 c13 -16 12 -17 -3 -4 -10 7 -18 15 -18 17 0 8 8 3 21 -13z m454 8
c3 -5 2 -12 -3 -15 -5 -3 -9 1 -9 9 0 17 3 19 12 6z m-171 -13 c-3 -4 -9 -8
-15 -8 -5 0 -9 4 -9 8 0 5 7 9 15 9 8 0 12 -4 9 -9z m41 2 c3 -6 -1 -7 -9 -4
-18 7 -21 14 -7 14 6 0 13 -4 16 -10z m1472 -7 c0 -9 -4 -10 -14 -2 -7 6 -13
12 -13 14 0 1 6 2 13 2 8 0 14 -6 14 -14z m280 2 c0 -8 -4 -12 -9 -9 -5 3 -6
10 -3 15 9 13 12 11 12 -6z m-1841 -31 c0 -13 -2 -22 -5 -19 -3 3 -6 17 -7 31
0 13 2 22 5 19 3 -3 6 -17 7 -31z m181 11 c0 -8 -4 -12 -9 -9 -4 3 -8 9 -8 15
0 5 4 9 8 9 5 0 9 -7 9 -15z m1338 -3 c-3 -3 -11 0 -18 7 -9 10 -8 11 6 5 10
-3 15 -9 12 -12z m-1440 -1 c3 -5 2 -12 -3 -15 -5 -3 -9 1 -9 9 0 17 3 19 12
6z m-225 -7 c0 -8 -19 -13 -24 -6 -3 5 1 9 9 9 8 0 15 -2 15 -3z m26 -28 c0
-19 -3 -33 -7 -31 -7 5 -4 65 4 65 1 0 3 -15 3 -34z m1719 25 c3 -5 2 -12 -3
-15 -5 -3 -9 1 -9 9 0 17 3 19 12 6z m128 -3 c-6 -7 -9 -21 -8 -31 2 -9 0 -15
-5 -12 -13 8 1 55 17 55 3 0 1 -6 -4 -12z m73 -23 c-1 -8 -5 -17 -8 -21 -4 -3
-5 2 -4 13 2 10 -2 25 -8 33 -9 13 -9 13 6 2 9 -7 15 -19 14 -27z m-401 16 c3
-5 2 -12 -3 -15 -5 -3 -9 1 -9 9 0 17 3 19 12 6z m-1225 -7 c0 -8 -19 -13 -24
-6 -3 5 1 9 9 9 8 0 15 -2 15 -3z m1395 -5 c3 -3 -6 -5 -19 -5 -14 1 -28 4
-31 7 -3 3 6 5 19 5 14 -1 28 -4 31 -7z m-1644 -22 c-6 -8 -7 -18 -3 -22 4 -5
1 -5 -6 -1 -10 6 -10 11 -1 22 6 8 14 14 16 14 3 0 0 -6 -6 -13z m1723 1 c-3
-4 -9 -8 -15 -8 -5 0 -9 4 -9 8 0 5 7 9 15 9 8 0 12 -4 9 -9z m-64 -2 c0 -2
-6 -9 -14 -15 -11 -9 -16 -9 -22 0 -4 7 -3 9 4 5 6 -3 13 -2 17 4 6 10 15 14
15 6z m96 -14 c-3 -3 -1 -10 4 -17 7 -8 6 -12 -3 -12 -7 0 -13 11 -13 23 0 12
4 20 9 17 4 -3 6 -8 3 -11z m157 3 c-3 -9 -8 -14 -10 -11 -3 3 -2 9 2 15 9 16
15 13 8 -4z m-1818 -5 c3 -5 1 -10 -4 -10 -6 0 -11 5 -11 10 0 6 2 10 4 10 3
0 8 -4 11 -10z m36 -7 c13 -16 12 -17 -3 -4 -10 7 -18 15 -18 17 0 8 8 3 21
-13z m1585 -27 c0 -19 -3 -33 -7 -31 -7 5 -4 65 4 65 1 0 3 -15 3 -34z m-1896
-7 c0 -5 -4 -9 -8 -9 -5 0 -9 7 -9 15 0 8 4 12 9 9 4 -3 8 -9 8 -15z m314 0
c3 -3 -4 -5 -14 -6 -11 -1 -20 2 -20 7 0 8 25 8 34 -1z m1516 -14 c0 -2 -6 -8
-13 -14 -10 -8 -14 -7 -14 2 0 8 6 14 14 14 7 0 13 -1 13 -2z m34 -3 c3 -5 -1
-9 -9 -9 -8 0 -12 4 -9 9 3 4 7 8 9 8 2 0 6 -4 9 -8z m107 -9 c13 -16 12 -17
-3 -4 -10 7 -18 15 -18 17 0 8 8 3 21 -13z m-1894 -18 c0 -8 -4 -12 -9 -9 -5
3 -6 10 -3 15 9 13 12 11 12 -6z m38 6 c3 -5 2 -12 -3 -15 -5 -3 -9 1 -9 9 0
17 3 19 12 6z m40 -9 c-3 -3 -11 0 -18 7 -9 10 -8 11 6 5 10 -3 15 -9 12 -12z
m1880 9 c3 -5 2 -12 -3 -15 -5 -3 -9 1 -9 9 0 17 3 19 12 6z m40 -9 c-3 -3
-11 0 -18 7 -9 10 -8 11 6 5 10 -3 15 -9 12 -12z m-1718 -27 c0 -8 -4 -15 -9
-15 -10 0 -11 14 -1 23 9 10 10 9 10 -8z m1403 -6 c0 -5 -4 -9 -8 -9 -5 0 -9
7 -9 15 0 8 4 12 9 9 4 -3 8 -9 8 -15z m213 6 c15 1 25 -1 22 -4 -12 -12 -72
-7 -72 6 0 7 5 9 11 4 6 -4 23 -7 39 -6z m-1899 -6 c3 -2 -15 -5 -39 -5 -24 0
-42 3 -40 6 5 8 72 7 79 -1z m110 0 c3 -2 -10 -5 -29 -5 -18 0 -32 3 -30 7 5
7 52 6 59 -2z m75 8 c-2 -1 -13 -9 -24 -17 -19 -14 -19 -14 -6 3 7 9 18 17 24
17 6 0 8 -1 6 -3z m1845 -8 c3 -2 -15 -5 -39 -5 -24 0 -42 3 -40 6 5 8 72 7
79 -1z m-1810 -17 c3 -5 -1 -9 -9 -9 -8 0 -12 4 -9 9 3 4 7 8 9 8 2 0 6 -4 9
-8z m-299 -11 c3 -5 2 -12 -3 -15 -5 -3 -9 1 -9 9 0 17 3 19 12 6z m202 -6 c0
-8 -3 -13 -5 -10 -3 3 -12 -1 -21 -7 -10 -8 -9 -4 3 10 23 26 23 26 23 7z
m1803 12 c0 -2 -8 -11 -18 -20 -15 -14 -19 -15 -19 -2 0 8 4 12 8 9 4 -2 10 0
14 6 6 10 15 14 15 7z m117 -12 c0 -8 -4 -12 -9 -9 -5 3 -6 10 -3 15 9 13 12
11 12 -6z m-263 -4 c-8 -8 -34 -10 -38 -2 -3 4 6 7 19 7 14 0 22 -2 19 -5z
m-1758 -16 c-1 -8 -5 -17 -8 -21 -5 -4 -4 16 1 34 3 9 9 -1 7 -13z m1845 -2
c13 -16 12 -17 -3 -4 -17 13 -22 21 -14 21 2 0 10 -8 17 -17z m-1797 -1 c3 -5
-1 -9 -9 -9 -8 0 -15 4 -15 9 0 4 4 8 9 8 6 0 12 -4 15 -8z m-144 -23 c0 -5
-4 -9 -8 -9 -5 0 -9 7 -9 15 0 8 4 12 9 9 4 -3 8 -9 8 -15z m1873 6 c-3 -9 -8
-14 -10 -11 -3 3 -2 9 2 15 9 16 15 13 8 -4z m-1552 -42 c13 -16 12 -17 -3 -4
-10 7 -18 15 -18 17 0 8 8 3 21 -13z m-244 -8 c0 -8 -4 -12 -9 -9 -5 3 -6 10
-3 15 9 13 12 11 12 -6z m1733 11 c0 -2 -8 -10 -17 -17 -16 -13 -17 -12 -4 4
13 16 21 21 21 13z m225 -5 c3 -5 2 -12 -3 -15 -5 -3 -9 1 -9 9 0 17 3 19 12
6z m40 -9 c-3 -3 -11 0 -18 7 -9 10 -8 11 6 5 10 -3 15 -9 12 -12z m-1639 -26
c0 -14 -5 -21 -9 -17 -4 4 -5 15 -1 24 9 24 12 21 10 -7z m1234 20 c0 -2 -8
-10 -17 -17 -16 -13 -17 -12 -4 4 13 16 21 21 21 13z m-1596 -27 c3 -2 -15 -5
-39 -5 -24 0 -42 3 -40 6 5 8 72 7 79 -1z m2030 0 c3 -2 -15 -5 -39 -5 -24 0
-42 3 -40 6 5 8 72 7 79 -1z m-2091 -32 c4 3 7 1 7 -5 0 -17 -16 -15 -31 6
-12 15 -12 16 2 5 9 -7 19 -10 22 -6z m2099 1 c-13 -13 -64 -20 -56 -7 2 4 13
6 24 4 11 -2 22 0 25 6 4 5 9 9 13 9 3 0 1 -5 -6 -12z m-1622 -4 c0 -8 -19
-13 -24 -6 -3 5 1 9 9 9 8 0 15 -2 15 -3z m1331 -7 c-6 -8 -9 -16 -6 -19 3 -2
-2 -5 -10 -5 -13 0 -13 3 2 19 19 21 31 25 14 5z m-1601 -11 c0 -2 -7 -7 -16
-10 -8 -3 -12 -2 -9 4 6 10 25 14 25 6z m84 -48 c-3 -4 -9 -8 -15 -8 -5 0 -9
4 -9 8 0 5 7 9 15 9 8 0 12 -4 9 -9z m50 0 c-3 -4 -11 -5 -19 -1 -21 7 -19 12
4 10 11 0 18 -5 15 -9z m183 -12 c0 -15 -21 -16 -34 -1 -4 4 -3 5 4 1 6 -3 14
-2 18 4 8 14 12 13 12 -4z m1344 -43 c13 -16 12 -17 -3 -4 -17 13 -22 21 -14
21 2 0 10 -8 17 -17z m-1914 -18 c6 -14 7 -23 2 -19 -5 3 -9 0 -9 -6 0 -6 -4
-9 -9 -5 -5 3 -12 1 -16 -5 -3 -6 4 -14 17 -19 13 -6 19 -10 13 -11 -5 0 -3
-5 5 -10 10 -6 11 -10 3 -10 -7 0 -13 -9 -13 -21 0 -11 5 -17 10 -14 6 3 10 1
10 -4 0 -6 -4 -11 -8 -11 -5 0 -8 -27 -8 -60 1 -33 5 -60 10 -60 5 0 3 -6 -3
-14 -8 -9 -8 -16 -2 -20 6 -4 7 -14 4 -23 -4 -11 -3 -14 5 -9 7 4 12 2 12 -3
0 -6 -4 -11 -8 -11 -10 0 -3 -60 8 -75 4 -5 6 -18 5 -27 -2 -10 1 -18 6 -18 4
0 6 -7 2 -15 -3 -9 3 -23 13 -31 11 -9 13 -13 6 -9 -10 5 -11 0 -6 -22 4 -15
11 -33 15 -39 5 -6 6 -14 2 -17 -3 -4 2 -7 13 -7 16 0 17 -2 4 -10 -11 -7 -11
-10 -2 -10 7 0 11 -4 7 -9 -3 -5 -1 -12 5 -16 6 -4 8 -11 5 -16 -4 -5 -2 -9 3
-9 5 0 9 -6 9 -12 0 -7 4 -20 7 -29 4 -9 1 -23 -6 -30 -21 -23 -108 -158 -118
-185 -5 -13 -16 -24 -25 -24 -30 0 -152 131 -233 250 -34 50 -37 36 31 180 47
101 70 165 102 287 34 132 56 188 86 224 29 35 31 35 46 4z m264 8 c12 -16 12
-17 -2 -6 -9 7 -20 9 -24 5 -5 -4 -5 -1 -1 6 9 16 11 15 27 -5z m1589 11 c0
-8 -19 -13 -24 -6 -3 5 1 9 9 9 8 0 15 -2 15 -3z m383 -57 c14 -23 37 -89 52
-147 38 -145 71 -237 127 -359 47 -102 48 -105 31 -129 -10 -13 -25 -34 -33
-46 -64 -94 -188 -226 -212 -226 -8 0 -20 12 -27 26 -18 40 -113 184 -122 184
-3 0 -9 13 -11 29 -2 17 -1 28 3 25 17 -10 86 167 72 189 -3 6 -1 7 5 3 7 -4
12 0 13 11 0 10 2 25 4 33 12 50 16 69 20 105 3 22 7 50 9 63 3 12 1 22 -5 22
-5 0 -9 5 -9 11 0 5 4 8 8 5 5 -3 9 36 10 85 1 75 4 93 19 105 11 8 13 13 5
14 -7 0 -16 10 -21 23 -22 56 27 37 62 -26z m-1782 36 c13 -16 12 -17 -3 -4
-10 7 -18 15 -18 17 0 8 8 3 21 -13z m1599 3 c0 -3 -4 -8 -10 -11 -5 -3 -10
-1 -10 4 0 6 5 11 10 11 6 0 10 -2 10 -4z m-488 -21 c3 0 9 -3 13 -7 4 -3 0
-5 -9 -4 -9 1 -22 8 -29 16 -10 10 -9 11 3 4 8 -5 18 -9 22 -9z m-1436 -20
c-1 -8 -5 -17 -8 -21 -5 -4 -4 16 1 34 3 9 9 -1 7 -13z m204 -3 c0 -5 -7 -9
-15 -9 -8 0 -12 4 -9 9 3 4 9 8 15 8 5 0 9 -4 9 -8z m236 -16 c1 -7 -4 -13
-12 -13 -9 0 -11 4 -4 12 5 7 8 15 5 18 -3 4 -2 5 2 2 4 -3 8 -11 9 -19z m40
-11 c-1 -8 -5 -17 -8 -21 -4 -3 -5 2 -4 13 2 10 -2 25 -8 33 -9 13 -9 13 6 2
9 -7 15 -19 14 -27z m214 -61 l55 -28 -32 -6 c-17 -4 -59 -25 -92 -48 l-61
-40 -1 26 c-1 15 -1 37 -2 50 0 12 -4 22 -10 22 -5 0 -4 7 3 15 10 12 10 15 0
15 -8 0 -9 4 -3 13 5 6 9 26 8 44 l-1 31 40 -33 c23 -18 66 -46 96 -61z m1110
88 c0 -5 -7 -9 -15 -9 -8 0 -12 4 -9 9 3 4 9 8 15 8 5 0 9 -4 9 -8z m-440 -16
c-13 -13 -13 -29 0 -21 6 3 10 1 10 -4 0 -6 -5 -11 -11 -11 -8 0 -7 -6 2 -17
10 -11 10 -14 2 -9 -8 4 -13 1 -13 -9 0 -9 4 -14 9 -10 5 3 13 1 16 -5 4 -6 1
-9 -7 -8 -9 2 -13 -10 -13 -45 0 -57 -9 -59 -71 -16 -24 16 -61 36 -81 43
l-36 12 54 31 c30 17 69 42 88 56 35 24 72 34 51 13z m-1423 -11 c0 -8 -4 -12
-9 -9 -4 3 -8 9 -8 15 0 5 4 9 8 9 5 0 9 -7 9 -15z m143 11 c0 -2 -7 -7 -16
-10 -8 -3 -12 -2 -9 4 6 10 25 14 25 6z m1876 -21 c-1 -13 -4 -27 -7 -30 -5
-4 -4 41 0 53 4 10 8 -2 7 -23z m-36 -4 c0 -5 -8 -15 -17 -22 -16 -12 -17 -12
-6 2 7 9 10 19 6 22 -3 4 -1 7 5 7 7 0 12 -4 12 -9z m-340 -22 c0 -5 -4 -9 -8
-9 -5 0 -9 7 -9 15 0 8 4 12 9 9 4 -3 8 -9 8 -15z m437 6 c0 -8 -4 -12 -9 -9
-5 3 -6 10 -3 15 9 13 12 11 12 -6z m-2000 -10 c0 -8 -4 -12 -9 -9 -4 3 -8 9
-8 15 0 5 4 9 8 9 5 0 9 -7 9 -15z m99 -21 c0 -18 -3 -31 -7 -28 -4 2 -6 12
-4 22 1 9 -1 22 -6 28 -5 6 -4 11 4 11 8 0 13 -13 13 -33z m84 26 c0 -5 -5
-10 -11 -10 -5 0 -7 5 -4 10 3 6 8 10 11 10 2 0 4 -4 4 -10z m1516 -26 c0 -18
-3 -31 -7 -28 -4 2 -6 12 -4 22 1 9 -1 22 -6 28 -5 6 -4 11 4 11 8 0 13 -13
13 -33z m84 26 c0 -5 -5 -10 -11 -10 -5 0 -7 5 -4 10 3 6 8 10 11 10 2 0 4 -4
4 -10z m51 -7 c13 -16 12 -17 -3 -4 -10 7 -18 15 -18 17 0 8 8 3 21 -13z
m-1691 -12 c0 -6 -4 -12 -8 -15 -5 -3 -9 1 -9 9 0 8 4 15 9 15 4 0 8 -4 8 -9z
m1320 1 c0 -5 -7 -9 -15 -9 -8 0 -12 4 -9 9 3 4 9 8 15 8 5 0 9 -4 9 -8z m116
-8 c-4 -9 -1 -24 6 -33 11 -15 10 -15 -5 0 -16 13 -15 49 0 49 3 0 2 -7 -1
-16z m155 -7 c-10 -9 -11 -8 -5 6 3 10 9 15 12 12 3 -3 0 -11 -7 -18z m-1690
-4 c13 -16 12 -17 -3 -4 -10 7 -18 15 -18 17 0 8 8 3 21 -13z m1839 -4 c0 -5
-4 -9 -8 -9 -5 0 -9 7 -9 15 0 8 4 12 9 9 4 -3 8 -9 8 -15z m-1936 3 c3 -5 -1
-9 -9 -9 -8 0 -12 4 -9 9 3 4 7 8 9 8 2 0 6 -4 9 -8z m40 -4 c-3 -4 -9 -8 -15
-8 -5 0 -9 4 -9 8 0 5 7 9 15 9 8 0 12 -4 9 -9z m196 2 c0 -5 -2 -10 -4 -10
-3 0 -8 5 -11 10 -3 6 -1 10 4 10 6 0 11 -4 11 -10z m77 -5 c0 -8 -4 -12 -9
-9 -5 3 -6 10 -3 15 9 13 12 11 12 -6z m220 0 c0 -8 -4 -12 -9 -9 -4 3 -8 9
-8 15 0 5 4 9 8 9 5 0 9 -7 9 -15z m1073 9 c0 -8 -19 -13 -24 -6 -3 5 1 9 9 9
8 0 15 -2 15 -3z m230 -4 c0 -5 -2 -10 -4 -10 -3 0 -8 5 -11 10 -3 6 -1 10 4
10 6 0 11 -4 11 -10z m-1480 -14 c0 -2 -7 -7 -16 -10 -8 -3 -12 -2 -9 4 6 10
25 14 25 6z m1124 -8 c-3 -4 -9 -8 -15 -8 -5 0 -9 4 -9 8 0 5 7 9 15 9 8 0 12
-4 9 -9z m-45 -11 c8 -10 7 -14 -2 -14 -8 0 -14 6 -14 14 0 7 1 13 2 13 2 0 8
-6 14 -13z m139 -12 c-3 -3 -9 2 -12 12 -6 14 -5 15 5 6 7 -7 10 -15 7 -18z
m455 10 c-3 -9 -8 -14 -10 -11 -3 3 -2 9 2 15 9 16 15 13 8 -4z m-1969 -3 c3
-5 -1 -9 -9 -9 -8 0 -12 4 -9 9 3 4 7 8 9 8 2 0 6 -4 9 -8z m1892 -17 c1 -8
-5 -20 -14 -27 -15 -11 -15 -11 -6 2 6 8 10 23 8 33 -1 11 0 16 4 13 3 -4 7
-13 8 -21z m-1086 0 c17 -9 30 -20 30 -26 0 -5 -28 -23 -62 -38 -35 -16 -92
-50 -127 -76 -60 -46 -64 -48 -77 -30 -8 10 -14 27 -14 38 0 10 -4 16 -9 13
-4 -3 -6 6 -3 19 5 26 54 69 112 97 44 22 112 23 150 3z m199 -6 c-15 -30 2
-50 67 -79 34 -16 94 -52 132 -81 l70 -52 -19 -31 c-11 -17 -22 -38 -25 -47
-3 -9 -32 -32 -65 -51 -32 -19 -57 -37 -55 -39 2 -2 -14 -5 -36 -6 -22 -2 -48
-8 -56 -15 -13 -11 -14 -11 -8 0 7 11 4 12 -10 5 -18 -9 -57 -9 -134 1 -81 10
-105 17 -141 41 -21 14 -41 25 -44 25 -14 0 -90 96 -90 115 0 16 135 111 197
138 57 25 80 56 60 80 -8 9 10 12 78 12 81 1 88 -1 79 -16z m240 -26 c69 -46
71 -49 66 -81 -3 -19 -7 -38 -10 -42 -3 -5 1 -11 7 -13 8 -4 7 -6 -4 -6 -9 -1
-18 -6 -20 -11 -2 -6 -36 14 -76 44 -40 30 -97 64 -127 76 -89 36 -65 77 46
79 40 1 58 -6 118 -46z m-1179 31 c0 -8 -19 -13 -24 -6 -3 5 1 9 9 9 8 0 15
-2 15 -3z m26 -38 c0 -25 -3 -43 -6 -41 -5 3 -6 72 -1 83 4 10 7 -4 7 -42z
m160 18 c1 -9 0 -13 -4 -10 -3 4 -7 14 -8 22 -1 9 0 13 4 10 3 -4 7 -14 8 -22z
m1519 -12 c-1 -9 1 -22 6 -28 5 -6 4 -11 -4 -11 -8 0 -13 13 -13 33 0 18 3 31
7 28 4 -2 6 -12 4 -22z m-1360 7 c3 -3 -6 -5 -19 -5 -14 1 -28 4 -31 7 -3 3 6
5 19 5 14 -1 28 -4 31 -7z m95 5 c0 -8 -19 -13 -24 -6 -3 5 1 9 9 9 8 0 15 -2
15 -3z m1321 -11 c13 -16 12 -17 -3 -4 -10 7 -18 15 -18 17 0 8 8 3 21 -13z
m-1773 -18 c-3 -3 -9 2 -12 12 -6 14 -5 15 5 6 7 -7 10 -15 7 -18z m1679 10
c0 -8 -4 -15 -9 -15 -10 0 -11 14 -1 23 9 10 10 9 10 -8z m-1793 -7 c-3 -4 -9
-8 -15 -8 -5 0 -9 4 -9 8 0 5 7 9 15 9 8 0 12 -4 9 -9z m31 -7 c3 -5 2 -12 -3
-15 -5 -3 -9 1 -9 9 0 17 3 19 12 6z m503 -16 c-3 -3 -9 2 -12 12 -6 14 -5 15
5 6 7 -7 10 -15 7 -18z m1195 10 c-3 -9 -8 -14 -10 -11 -3 3 -2 9 2 15 9 16
15 13 8 -4z m218 -39 c-11 -14 -34 -16 -46 -4 -3 3 5 5 17 4 14 -1 23 5 23 14
0 8 -5 14 -11 13 -6 -1 -11 5 -11 13 0 12 5 11 20 -5 16 -16 18 -23 8 -35z
m-1697 28 c3 -8 2 -12 -4 -9 -6 3 -10 10 -10 16 0 14 7 11 14 -7z m1241 7 c3
-5 2 -12 -3 -15 -5 -3 -9 1 -9 9 0 17 3 19 12 6z m40 -9 c-3 -3 -11 0 -18 7
-9 10 -8 11 6 5 10 -3 15 -9 12 -12z m460 -27 c1 -19 -1 -32 -4 -29 -3 3 -6
21 -6 39 -1 19 1 32 4 29 3 -3 6 -21 6 -39z m58 25 c10 -12 9 -12 -4 -2 -9 6
-18 9 -21 6 -3 -3 -9 -1 -12 4 -9 15 22 8 37 -8z m-1612 -7 c13 -16 12 -17 -3
-4 -10 7 -18 15 -18 17 0 8 8 3 21 -13z m-445 -18 c1 -8 -5 -20 -14 -27 -15
-11 -15 -11 -6 2 6 8 10 23 8 33 -1 11 0 16 4 13 3 -4 7 -13 8 -21z m84 17 c0
-5 -7 -9 -15 -9 -8 0 -12 4 -9 9 3 4 9 8 15 8 5 0 9 -4 9 -8z m174 -23 c3 -2
-10 -5 -29 -5 -18 0 -32 3 -30 7 5 7 52 6 59 -2z m166 -4 c-5 -7 -9 -14 -7
-16 1 -2 0 -3 -2 -1 -11 7 -7 29 5 29 9 0 11 -4 4 -12z m1132 -5 c11 -12 10
-12 -2 -3 -8 6 -23 9 -32 8 -10 -2 -20 0 -23 4 -8 14 44 6 57 -9z m45 5 c0 -8
-4 -12 -9 -9 -5 3 -6 10 -3 15 9 13 12 11 12 -6z m-1406 -22 c13 -16 12 -17
-3 -4 -10 7 -18 15 -18 17 0 8 8 3 21 -13z m86 2 c0 -8 -4 -12 -9 -9 -5 3 -6
10 -3 15 9 13 12 11 12 -6z m318 -5 c10 -11 16 -20 13 -20 -3 0 -13 9 -23 20
-10 11 -16 20 -13 20 3 0 13 -9 23 -20z m1169 8 c-3 -4 -9 -8 -15 -8 -5 0 -9
4 -9 8 0 5 7 9 15 9 8 0 12 -4 9 -9z m-1608 -13 c-1 -8 -5 -17 -8 -21 -5 -4
-4 16 1 34 3 9 9 -1 7 -13z m1742 -10 c-3 -3 -9 2 -12 12 -6 14 -5 15 5 6 7
-7 10 -15 7 -18z m-1823 5 c3 -5 1 -10 -4 -10 -6 0 -11 5 -11 10 0 6 2 10 4
10 3 0 8 -4 11 -10z m465 0 c0 -5 -5 -10 -11 -10 -5 0 -7 5 -4 10 3 6 8 10 11
10 2 0 4 -4 4 -10z m-416 -18 c3 -5 -1 -9 -9 -9 -8 0 -15 4 -15 9 0 4 4 8 9 8
6 0 12 -4 15 -8z m192 -17 c1 -8 -5 -20 -14 -27 -15 -11 -15 -11 -6 2 6 8 10
23 8 33 -1 11 0 16 4 13 3 -4 7 -13 8 -21z m-239 0 c0 -8 -4 -12 -9 -9 -5 3
-6 10 -3 15 9 13 12 11 12 -6z m166 1 c11 1 16 0 13 -4 -13 -12 -36 -10 -48 6
-11 15 -11 15 2 6 8 -6 23 -10 33 -8z m1714 -1 c0 -8 -4 -12 -9 -9 -5 3 -6 10
-3 15 9 13 12 11 12 -6z m-1957 -5 c0 -5 -5 -10 -11 -10 -5 0 -7 5 -4 10 3 6
8 10 11 10 2 0 4 -4 4 -10z m520 0 c0 -5 -5 -10 -11 -10 -5 0 -7 5 -4 10 3 6
8 10 11 10 2 0 4 -4 4 -10z m40 4 c0 -8 -19 -13 -24 -6 -3 5 1 9 9 9 8 0 15
-2 15 -3z m1215 -5 c3 -3 -7 -5 -22 -4 -16 1 -33 -2 -39 -6 -6 -5 -11 -3 -11
4 0 13 60 18 72 6z m-1580 -33 c0 -19 -3 -37 -6 -40 -4 -5 -4 62 0 72 4 10 7
-4 6 -32z m-235 14 c0 -5 -2 -10 -4 -10 -3 0 -8 5 -11 10 -3 6 -1 10 4 10 6 0
11 -4 11 -10z m84 2 c3 -5 -1 -9 -9 -9 -8 0 -15 4 -15 9 0 4 4 8 9 8 6 0 12
-4 15 -8z m113 -9 c0 -9 -4 -10 -14 -2 -7 6 -13 12 -13 14 0 1 6 2 13 2 8 0
14 -6 14 -14z m1421 -18 c-3 -3 -9 2 -12 12 -6 14 -5 15 5 6 7 -7 10 -15 7
-18z m-1578 11 c0 -3 -4 -8 -10 -11 -5 -3 -10 -1 -10 4 0 6 5 11 10 11 6 0 10
-2 10 -4z m395 -6 c3 -5 1 -10 -4 -10 -6 0 -11 5 -11 10 0 6 2 10 4 10 3 0 8
-4 11 -10z m105 1 c0 -6 -4 -12 -8 -15 -5 -3 -9 1 -9 9 0 8 4 15 9 15 4 0 8
-4 8 -9z m1044 -2 c3 -3 -5 -5 -19 -5 -13 0 -22 3 -19 7 4 8 30 6 38 -2z m271
2 c3 -5 2 -12 -3 -15 -5 -3 -9 1 -9 9 0 17 3 19 12 6z m40 -9 c-3 -3 -11 0
-18 7 -9 10 -8 11 6 5 10 -3 15 -9 12 -12z m159 2 c3 -8 2 -12 -4 -9 -6 3 -10
10 -10 16 0 14 7 11 14 -7z m-1775 -7 c8 -10 7 -14 -2 -14 -8 0 -14 6 -14 14
0 7 1 13 2 13 2 0 8 -6 14 -13z m1239 -12 c-3 -3 -9 2 -12 12 -6 14 -5 15 5 6
7 -7 10 -15 7 -18z m282 21 c0 -2 -8 -10 -17 -17 -16 -13 -17 -12 -4 4 13 16
21 21 21 13z m-1670 -10 c0 -2 -8 -10 -17 -17 -16 -13 -17 -12 -4 4 13 16 21
21 21 13z m270 -8 c0 -4 -4 -8 -9 -8 -6 0 -12 4 -15 8 -3 5 1 9 9 9 8 0 15 -4
15 -9z m1290 8 c0 -2 -8 -10 -17 -17 -16 -13 -17 -12 -4 4 13 16 21 21 21 13z
m-1253 -21 c0 -8 -4 -12 -9 -9 -5 3 -6 10 -3 15 9 13 12 11 12 -6z m262 2 c8
-10 7 -14 -2 -14 -8 0 -14 6 -14 14 0 7 1 13 2 13 2 0 8 -6 14 -13z m918 -2
c0 -8 -4 -15 -9 -15 -10 0 -11 14 -1 23 9 10 10 9 10 -8z m-1413 -6 c3 -3 -5
-5 -19 -5 -13 0 -22 3 -19 7 4 8 30 6 38 -2z m151 2 c3 -5 2 -12 -3 -15 -5 -3
-9 1 -9 9 0 17 3 19 12 6z m1045 -6 c-5 -7 -9 -14 -7 -16 1 -2 0 -3 -2 -1 -11
7 -7 29 5 29 9 0 11 -4 4 -12z m315 -2 c-1 -10 3 -25 9 -33 9 -13 9 -13 -6 -2
-13 10 -16 26 -9 50 4 11 9 -2 6 -15z m209 6 c3 -2 -15 -5 -39 -5 -24 0 -42 3
-40 6 5 8 72 7 79 -1z m130 0 c3 -3 -11 -5 -32 -4 -20 1 -44 -3 -52 -9 -13 -9
-13 -8 -3 5 12 14 75 21 87 8z m-2010 -21 c-3 -4 -9 -8 -15 -8 -5 0 -9 4 -9 8
0 5 7 9 15 9 8 0 12 -4 9 -9z m276 0 c0 -4 -4 -8 -9 -8 -6 0 -12 4 -15 8 -3 5
1 9 9 9 8 0 15 -4 15 -9z m84 4 c3 -5 -1 -9 -9 -9 -8 0 -15 4 -15 9 0 4 4 8 9
8 6 0 12 -4 15 -8z m960 0 c3 -5 -1 -9 -9 -9 -8 0 -12 4 -9 9 3 4 7 8 9 8 2 0
6 -4 9 -8z m316 -2 c0 -5 -5 -10 -11 -10 -5 0 -7 5 -4 10 3 6 8 10 11 10 2 0
4 -4 4 -10z m80 -5 c-5 -7 -9 -14 -7 -16 1 -2 0 -3 -2 -1 -11 7 -7 29 5 29 9
0 11 -4 4 -12z m-1683 -24 c0 -10 -7 -18 -14 -18 -9 0 -10 4 -2 13 6 7 7 19 3
25 -4 7 -3 9 4 5 6 -3 10 -15 9 -25z m140 14 c0 -8 -4 -12 -9 -9 -5 3 -6 10
-3 15 9 13 12 11 12 -6z m416 0 c-3 -9 -8 -14 -10 -11 -3 3 -2 9 2 15 9 16 15
13 8 -4z m1304 0 c0 -8 -4 -12 -9 -9 -5 3 -6 10 -3 15 9 13 12 11 12 -6z
m-1821 -39 c-1 -14 -4 -28 -7 -31 -3 -3 -5 7 -4 22 1 16 -3 35 -9 43 -9 13 -9
13 5 3 9 -7 15 -24 15 -37z m244 40 c0 -2 -7 -7 -16 -10 -8 -3 -12 -2 -9 4 6
10 25 14 25 6z m104 -4 c3 -5 -1 -9 -9 -9 -8 0 -12 4 -9 9 3 4 7 8 9 8 2 0 6
-4 9 -8z m1367 -9 c13 -16 12 -17 -3 -4 -10 7 -18 15 -18 17 0 8 8 3 21 -13z
m184 -1 c-3 -3 -11 0 -18 7 -9 10 -8 11 6 5 10 -3 15 -9 12 -12z m-1340 -47
c1 -19 -1 -32 -4 -29 -3 3 -6 21 -6 39 -1 19 1 32 4 29 3 -3 6 -21 6 -39z m45
31 c-7 -7 -13 -7 -20 0 -6 6 -3 10 10 10 13 0 16 -4 10 -10z m683 2 c-6 -7 -9
-21 -8 -31 2 -9 0 -15 -5 -12 -13 8 1 55 17 55 3 0 1 -6 -4 -12z m77 -19 c0
-5 -5 -9 -12 -9 -6 0 -8 3 -5 7 4 3 1 13 -6 22 -11 14 -10 14 6 2 9 -7 17 -17
17 -22z m-1143 6 c0 -8 -4 -15 -9 -15 -10 0 -11 14 -1 23 9 10 10 9 10 -8z
m423 -6 c0 -5 -4 -9 -8 -9 -5 0 -9 7 -9 15 0 8 4 12 9 9 4 -3 8 -9 8 -15z
m1177 6 c0 -8 -4 -15 -9 -15 -10 0 -11 14 -1 23 9 10 10 9 10 -8z m-1366 -12
c13 -16 12 -17 -3 -4 -10 7 -18 15 -18 17 0 8 8 3 21 -13z m1429 7 c0 -5 -5
-10 -11 -10 -5 0 -7 5 -4 10 3 6 8 10 11 10 2 0 4 -4 4 -10z m44 2 c3 -5 -1
-9 -9 -9 -8 0 -15 4 -15 9 0 4 4 8 9 8 6 0 12 -4 15 -8z m-1331 -17 c-3 -9 -8
-14 -10 -11 -3 3 -2 9 2 15 9 16 15 13 8 -4z m-553 1 c0 -2 -7 -7 -16 -10 -8
-3 -12 -2 -9 4 6 10 25 14 25 6z m650 -6 c12 -7 10 -9 -8 -7 -12 0 -22 5 -22
9 0 11 12 10 30 -2z m705 0 c3 -5 1 -10 -4 -10 -6 0 -11 5 -11 10 0 6 2 10 4
10 3 0 8 -4 11 -10z m-756 -13 c8 -10 7 -14 -2 -14 -8 0 -14 6 -14 14 0 7 1
13 2 13 2 0 8 -6 14 -13z m593 -2 c2 3 5 -2 5 -10 0 -10 -4 -12 -12 -5 -7 5
-14 8 -17 5 -2 -3 -5 2 -5 10 0 10 4 12 12 5 7 -5 14 -8 17 -5z m123 6 c3 -5
2 -12 -3 -15 -5 -3 -9 1 -9 9 0 17 3 19 12 6z m-915 -15 c-7 -7 -13 -7 -20 0
-6 6 -3 10 10 10 13 0 16 -4 10 -10z m1291 -9 c-10 -9 -11 -8 -5 6 3 10 9 15
12 12 3 -3 0 -11 -7 -18z m166 8 c0 -8 -4 -12 -9 -9 -4 3 -8 9 -8 15 0 5 4 9
8 9 5 0 9 -7 9 -15z m-1541 -21 c1 -9 0 -13 -4 -10 -3 4 -7 14 -8 22 -1 9 0
13 4 10 3 -4 7 -14 8 -22z m363 13 c8 -10 7 -14 -2 -14 -8 0 -14 6 -14 14 0 7
1 13 2 13 2 0 8 -6 14 -13z m-723 -32 c-1 -8 -5 -17 -8 -21 -4 -3 -5 2 -4 13
2 10 -2 25 -8 33 -9 13 -9 13 6 2 9 -7 15 -19 14 -27z m1284 27 c0 -5 -7 -9
-15 -9 -8 0 -12 4 -9 9 3 4 9 8 15 8 5 0 9 -4 9 -8z m-1324 -17 c-1 -8 -5 -17
-8 -21 -5 -4 -4 16 1 34 3 9 9 -1 7 -13z m704 11 c0 -2 -8 -10 -17 -17 -16
-13 -17 -12 -4 4 13 16 21 21 21 13z m-409 -29 c-10 -9 -11 -8 -5 6 3 10 9 15
12 12 3 -3 0 -11 -7 -18z m139 19 c0 -2 -8 -10 -17 -17 -16 -13 -17 -12 -4 4
13 16 21 21 21 13z m103 -16 c10 -12 9 -12 -3 -3 -8 6 -23 9 -33 8 -9 -2 -15
0 -12 5 7 12 33 6 48 -10z m381 12 c3 -5 -1 -9 -9 -9 -8 0 -12 4 -9 9 3 4 7 8
9 8 2 0 6 -4 9 -8z m206 -2 c0 -5 -2 -10 -4 -10 -3 0 -8 5 -11 10 -3 6 -1 10
4 10 6 0 11 -4 11 -10z m34 2 c3 -5 -1 -9 -9 -9 -8 0 -12 4 -9 9 3 4 7 8 9 8
2 0 6 -4 9 -8z m110 -1 c-8 -8 -34 -10 -38 -2 -3 4 6 7 19 7 14 0 22 -2 19 -5z
m280 1 c3 -5 -1 -9 -9 -9 -8 0 -12 4 -9 9 3 4 7 8 9 8 2 0 6 -4 9 -8z m336 -2
c0 -5 -5 -10 -11 -10 -5 0 -7 5 -4 10 3 6 8 10 11 10 2 0 4 -4 4 -10z m-1165
-9 c3 -5 2 -12 -3 -15 -5 -3 -9 1 -9 9 0 17 3 19 12 6z m1202 -6 c0 -8 -4 -15
-9 -15 -10 0 -11 14 -1 23 9 10 10 9 10 -8z m-1677 -10 c0 -2 -9 -3 -19 -2
-11 0 -18 5 -15 9 4 6 34 0 34 -7z m757 -2 c0 -9 -4 -10 -14 -2 -7 6 -13 12
-13 14 0 1 6 2 13 2 8 0 14 -6 14 -14z m407 5 c-3 -4 -9 -8 -15 -8 -5 0 -9 4
-9 8 0 5 7 9 15 9 8 0 12 -4 9 -9z m-654 -13 c-14 -17 -30 -20 -30 -4 0 5 4 8
9 4 5 -3 12 -1 16 5 3 5 9 10 12 10 3 0 0 -7 -7 -15z m148 -10 c-3 -3 -9 2
-12 12 -6 14 -5 15 5 6 7 -7 10 -15 7 -18z m320 0 c-3 -3 -9 2 -12 12 -6 14
-5 15 5 6 7 -7 10 -15 7 -18z m-858 5 c0 -5 -5 -10 -11 -10 -5 0 -7 5 -4 10 3
6 8 10 11 10 2 0 4 -4 4 -10z m150 6 c0 -2 -8 -10 -17 -17 -16 -13 -17 -12 -4
4 13 16 21 21 21 13z m25 -6 c3 -5 1 -10 -4 -10 -6 0 -11 5 -11 10 0 6 2 10 4
10 3 0 8 -4 11 -10z m285 6 c0 -2 -7 -7 -16 -10 -8 -3 -12 -2 -9 4 6 10 25 14
25 6z m320 0 c0 -2 -7 -7 -16 -10 -8 -3 -12 -2 -9 4 6 10 25 14 25 6z m180 -6
c0 -5 -5 -10 -11 -10 -5 0 -7 5 -4 10 3 6 8 10 11 10 2 0 4 -4 4 -10z m284 1
c-3 -4 -9 -6 -12 -6 -4 0 -12 -3 -18 -7 -6 -4 -11 -1 -11 5 0 7 11 13 23 13
13 0 21 -2 18 -5z m131 -1 c3 -5 1 -10 -4 -10 -6 0 -11 5 -11 10 0 6 2 10 4
10 3 0 8 -4 11 -10z m-1415 -21 c0 -5 -4 -9 -8 -9 -5 0 -9 7 -9 15 0 8 4 12 9
9 4 -3 8 -9 8 -15z m84 3 c3 -5 -1 -9 -9 -9 -8 0 -15 4 -15 9 0 4 4 8 9 8 6 0
12 -4 15 -8z m440 0 c3 -5 -1 -9 -9 -9 -8 0 -15 4 -15 9 0 4 4 8 9 8 6 0 12
-4 15 -8z m151 -9 c-1 -10 3 -25 9 -33 9 -13 9 -13 -6 -2 -13 10 -16 26 -9 50
4 11 9 -2 6 -15z m276 -6 c-10 -9 -11 -8 -5 6 3 10 9 15 12 12 3 -3 0 -11 -7
-18z m-651 -8 c0 -5 -4 -9 -8 -9 -5 0 -9 7 -9 15 0 8 4 12 9 9 4 -3 8 -9 8
-15z m37 6 c0 -8 -4 -15 -9 -15 -10 0 -11 14 -1 23 9 10 10 9 10 -8z m443 11
c0 -2 -8 -10 -17 -17 -16 -13 -17 -12 -4 4 13 16 21 21 21 13z m215 -5 c3 -5
2 -12 -3 -15 -5 -3 -9 1 -9 9 0 17 3 19 12 6z m-1121 -12 c3 -3 -5 -5 -19 -5
-13 0 -22 3 -19 7 4 8 30 6 38 -2z m166 1 c0 -5 -2 -10 -4 -10 -3 0 -8 5 -11
10 -3 6 -1 10 4 10 6 0 11 -4 11 -10z m164 2 c3 -5 -1 -9 -9 -9 -8 0 -12 4 -9
9 3 4 7 8 9 8 2 0 6 -4 9 -8z m36 4 c0 -3 -4 -8 -10 -11 -5 -3 -10 -1 -10 4 0
6 5 11 10 11 6 0 10 -2 10 -4z m160 -6 c0 -5 -5 -10 -11 -10 -5 0 -7 5 -4 10
3 6 8 10 11 10 2 0 4 -4 4 -10z m35 0 c3 -5 1 -10 -4 -10 -6 0 -11 5 -11 10 0
6 2 10 4 10 3 0 8 -4 11 -10z m770 0 c-5 -8 -72 -7 -79 1 -3 2 15 5 39 5 24 0
42 -3 40 -6z m119 -1 c3 -3 -10 -5 -29 -4 -18 0 -36 3 -39 6 -3 3 10 5 29 4
18 0 36 -3 39 -6z m76 1 c0 -5 -2 -10 -4 -10 -3 0 -8 5 -11 10 -3 6 -1 10 4
10 6 0 11 -4 11 -10z m-799 -17 c13 -16 12 -17 -3 -4 -10 7 -18 15 -18 17 0 8
8 3 21 -13z m-844 -8 c0 -8 -4 -12 -9 -9 -5 3 -6 10 -3 15 9 13 12 11 12 -6z
m46 3 c-6 -7 -9 -26 -8 -41 1 -15 -1 -30 -5 -32 -3 -2 -6 10 -5 28 1 31 11 57
22 57 3 0 1 -6 -4 -12z m317 0 c0 -4 -4 -8 -9 -8 -6 0 -12 4 -15 8 -3 5 1 9 9
9 8 0 15 -4 15 -9z m960 0 c0 -4 -4 -8 -9 -8 -6 0 -12 4 -15 8 -3 5 1 9 9 9 8
0 15 -4 15 -9z m-1228 -13 c2 3 5 -2 5 -10 0 -10 -4 -12 -12 -5 -7 5 -14 8
-17 5 -2 -3 -5 2 -5 10 0 10 4 12 12 5 7 -5 14 -8 17 -5z m1283 6 c3 -5 2 -12
-3 -15 -5 -3 -9 1 -9 9 0 17 3 19 12 6z m198 -6 c-3 -9 -8 -14 -10 -11 -3 3
-2 9 2 15 9 16 15 13 8 -4z m142 -29 c-1 -51 -11 -52 -11 -1 0 24 3 42 6 40 4
-2 6 -20 5 -39z m-1780 24 c-3 -5 2 -10 12 -11 10 0 13 -3 6 -6 -8 -3 -9 -8
-3 -16 6 -7 20 -24 31 -40 11 -15 25 -24 31 -21 7 4 8 2 4 -4 -14 -24 171
-181 196 -166 7 4 8 3 4 -4 -4 -7 20 -25 64 -47 38 -19 70 -33 70 -30 0 3 11
-2 25 -11 14 -9 32 -14 40 -10 8 3 15 1 15 -5 0 -7 12 -9 29 -7 17 2 29 0 28
-5 -1 -6 12 -11 28 -11 17 -1 32 -4 35 -7 3 -4 29 -9 58 -12 30 -3 56 -8 59
-11 3 -3 15 -1 26 5 12 7 17 7 13 1 -4 -7 49 -10 151 -11 115 -1 159 3 165 12
4 6 8 7 8 2 0 -6 17 -9 40 -7 22 2 38 8 35 12 -3 5 -1 12 5 15 6 4 10 3 9 -2
-3 -18 2 -24 14 -16 13 8 18 9 55 11 15 1 21 6 16 15 -5 9 -4 9 6 0 11 -10 16
-9 27 5 8 9 12 11 8 5 -3 -7 -4 -13 0 -13 13 0 131 42 141 51 6 5 15 5 19 1 5
-4 6 0 3 9 -4 9 -1 16 8 16 7 0 11 -4 8 -9 -3 -4 2 -5 10 -2 9 3 16 10 16 15
0 5 3 8 8 7 12 -4 72 24 72 33 0 5 5 9 10 9 6 0 16 4 23 10 7 5 32 25 57 43
25 19 44 39 42 46 -1 6 4 10 10 9 7 -2 12 3 10 10 -1 8 2 11 7 8 9 -6 58 46
99 107 l26 39 18 -24 c10 -13 44 -66 77 -119 l59 -97 -36 -34 c-85 -79 -246
-182 -377 -241 -91 -40 -245 -93 -300 -101 -21 -4 -40 -8 -44 -11 -4 -2 -25
-6 -47 -9 -21 -3 -50 -8 -64 -11 -14 -4 -101 -8 -195 -10 -165 -3 -282 7 -400
35 -27 6 -59 13 -69 16 -33 6 -149 46 -196 66 -155 67 -291 148 -408 243 l-60
49 30 55 c38 68 84 138 111 169 21 23 33 29 22 12z m260 -26 c0 -18 -3 -35 -6
-39 -3 -3 -5 7 -4 22 1 16 -2 33 -6 39 -5 6 -3 11 4 11 8 0 13 -12 12 -33z
m860 27 c3 -5 2 -12 -3 -15 -5 -3 -9 1 -9 9 0 17 3 19 12 6z m40 -9 c-3 -3
-11 0 -18 7 -9 10 -8 11 6 5 10 -3 15 -9 12 -12z m-812 -14 c-6 -7 -9 -21 -8
-31 2 -9 0 -15 -5 -12 -13 8 1 55 17 55 3 0 1 -6 -4 -12z m112 3 c3 -5 2 -12
-3 -15 -5 -3 -9 1 -9 9 0 17 3 19 12 6z m160 -9 c-3 -3 -11 0 -18 7 -9 10 -8
11 6 5 10 -3 15 -9 12 -12z m36 1 c13 -16 12 -17 -3 -4 -10 7 -18 15 -18 17 0
8 8 3 21 -13z m409 9 c0 -5 -7 -9 -15 -9 -8 0 -12 4 -9 9 3 4 9 8 15 8 5 0 9
-4 9 -8z m236 -26 c-2 -38 -12 -39 -12 -1 0 18 3 32 7 30 3 -3 5 -15 5 -29z
m39 16 c-3 -3 -11 0 -18 7 -9 10 -8 11 6 5 10 -3 15 -9 12 -12z m-1134 -9 c13
-16 12 -17 -3 -4 -10 7 -18 15 -18 17 0 8 8 3 21 -13z m375 -7 c0 -14 -3 -23
-7 -20 -6 3 -6 22 0 42 3 10 7 -2 7 -22z m1101 9 c0 -8 -4 -15 -9 -15 -10 0
-11 14 -1 23 9 10 10 9 10 -8z m-1246 -12 c13 -16 12 -17 -3 -4 -10 7 -18 15
-18 17 0 8 8 3 21 -13z m389 7 c0 -5 -5 -10 -11 -10 -5 0 -7 5 -4 10 3 6 8 10
11 10 2 0 4 -4 4 -10z m40 6 c0 -3 -4 -8 -10 -11 -5 -3 -10 -1 -10 4 0 6 5 11
10 11 6 0 10 -2 10 -4z m60 -5 c0 -6 -4 -12 -8 -15 -5 -3 -9 1 -9 9 0 8 4 15
9 15 4 0 8 -4 8 -9z m60 -1 c0 -5 -5 -10 -11 -10 -5 0 -7 5 -4 10 3 6 8 10 11
10 2 0 4 -4 4 -10z m204 -1 c3 -2 -10 -5 -29 -5 -18 0 -32 3 -30 7 5 7 52 6
59 -2z m66 7 c0 -2 -8 -10 -17 -17 -16 -13 -17 -12 -4 4 13 16 21 21 21 13z
m267 -11 c0 -8 -4 -12 -9 -9 -4 3 -8 9 -8 15 0 5 4 9 8 9 5 0 9 -7 9 -15z
m-1452 -15 c3 -6 -1 -7 -9 -4 -18 7 -21 14 -7 14 6 0 13 -4 16 -10z m437 -4
c-5 -6 -8 -28 -7 -48 1 -21 -1 -35 -4 -32 -12 12 -7 91 6 91 7 0 9 -5 5 -11z
m238 2 c0 -4 -4 -8 -9 -8 -6 0 -12 4 -15 8 -3 5 1 9 9 9 8 0 15 -4 15 -9z
m284 0 c-3 -4 -9 -8 -15 -8 -5 0 -9 4 -9 8 0 5 7 9 15 9 8 0 12 -4 9 -9z
m-488 -16 c-3 -3 0 -12 6 -21 10 -13 10 -14 -2 -4 -16 15 -23 46 -8 37 5 -3 7
-9 4 -12z m157 3 c-3 -9 -8 -14 -10 -11 -3 3 -2 9 2 15 9 16 15 13 8 -4z
m-529 -3 c3 -5 -1 -9 -9 -9 -8 0 -12 4 -9 9 3 4 7 8 9 8 2 0 6 -4 9 -8z m266
2 c0 -8 -19 -13 -24 -6 -3 5 1 9 9 9 8 0 15 -2 15 -3z m407 -9 c0 -8 -4 -12
-9 -9 -4 3 -8 9 -8 15 0 5 4 9 8 9 5 0 9 -7 9 -15z m96 -3 c15 -16 15 -19 2
-19 -8 0 -13 3 -10 5 3 3 0 11 -6 19 -17 20 -5 16 14 -5z m47 8 c0 -5 -2 -10
-4 -10 -3 0 -8 5 -11 10 -3 6 -1 10 4 10 6 0 11 -4 11 -10z m77 -5 c0 -8 -4
-12 -9 -9 -5 3 -6 10 -3 15 9 13 12 11 12 -6z m88 5 c-3 -5 -12 -10 -18 -10
-7 0 -6 4 3 10 19 12 23 12 15 0z m366 -13 c-10 -9 -11 -8 -5 6 3 10 9 15 12
12 3 -3 0 -11 -7 -18z m-1174 0 c0 -8 -6 -14 -14 -14 -9 0 -10 4 -2 14 6 7 12
13 14 13 1 0 2 -6 2 -13z m279 -13 c1 -9 0 -13 -4 -10 -3 4 -7 14 -8 22 -1 9
0 13 4 10 3 -4 7 -14 8 -22z m-391 6 c-3 -5 -12 -10 -18 -10 -7 0 -6 4 3 10
19 12 23 12 15 0z m30 -27 c-1 -21 3 -45 9 -53 9 -13 8 -13 -5 -3 -15 12 -20
93 -6 93 2 0 3 -17 2 -37z m845 29 c0 -5 -7 -9 -15 -9 -8 0 -12 4 -9 9 3 4 9
8 15 8 5 0 9 -4 9 -8z m530 4 c0 -2 -8 -10 -17 -17 -16 -13 -17 -12 -4 4 13
16 21 21 21 13z m35 -6 c-3 -5 -12 -10 -18 -10 -7 0 -6 4 3 10 19 12 23 12 15
0z m-948 -15 c0 -8 -4 -15 -9 -15 -10 0 -11 14 -1 23 9 10 10 9 10 -8z m418 6
c3 -5 2 -12 -3 -15 -5 -3 -9 1 -9 9 0 17 3 19 12 6z m265 -12 c0 -5 -4 -9 -8
-9 -5 0 -9 7 -9 15 0 8 4 12 9 9 4 -3 8 -9 8 -15z m296 -4 c1 -8 -1 -17 -5
-19 -4 -3 -7 6 -7 19 0 25 8 25 12 0z m-916 5 c0 -5 -2 -10 -4 -10 -3 0 -8 5
-11 10 -3 6 -1 10 4 10 6 0 11 -4 11 -10z m34 2 c3 -5 -1 -9 -9 -9 -8 0 -12 4
-9 9 3 4 7 8 9 8 2 0 6 -4 9 -8z m76 4 c0 -2 -8 -10 -17 -17 -16 -13 -17 -12
-4 4 13 16 21 21 21 13z m410 -6 c0 -5 -2 -10 -4 -10 -3 0 -8 5 -11 10 -3 6
-1 10 4 10 6 0 11 -4 11 -10z m35 0 c3 -5 1 -10 -4 -10 -6 0 -11 5 -11 10 0 6
2 10 4 10 3 0 8 -4 11 -10z m138 -10 c10 -12 9 -12 -3 -3 -8 6 -23 9 -33 8 -9
-2 -15 0 -12 5 7 12 33 6 48 -10z m71 12 c3 -5 -1 -9 -9 -9 -8 0 -12 4 -9 9 3
4 7 8 9 8 2 0 6 -4 9 -8z m-1167 -17 c0 -8 -4 -12 -9 -9 -5 3 -6 10 -3 15 9
13 12 11 12 -6z m-67 1 c0 -2 -8 -10 -17 -17 -16 -13 -17 -12 -4 4 13 16 21
21 21 13z m155 -6 c3 -6 -1 -7 -9 -4 -18 7 -21 14 -7 14 6 0 13 -4 16 -10z
m515 -2 c0 -4 -4 -8 -9 -8 -6 0 -12 4 -15 8 -3 5 1 9 9 9 8 0 15 -4 15 -9z
m81 -2 c-4 -6 -7 -24 -6 -39 1 -15 -1 -29 -4 -32 -4 -2 -7 16 -7 39 0 28 5 43
13 43 8 0 9 -5 4 -11z m119 10 c0 -2 -7 -7 -16 -10 -8 -3 -12 -2 -9 4 6 10 25
14 25 6z m-840 -26 c0 -5 -5 -10 -11 -10 -5 0 -7 5 -4 10 3 6 8 10 11 10 2 0
4 -4 4 -10z m295 1 c3 -5 2 -12 -3 -15 -5 -3 -9 1 -9 9 0 17 3 19 12 6z m40
-9 c-3 -3 -11 0 -18 7 -9 10 -8 11 6 5 10 -3 15 -9 12 -12z m122 3 c0 -8 -4
-12 -9 -9 -4 3 -8 9 -8 15 0 5 4 9 8 9 5 0 9 -7 9 -15z m567 7 c3 -5 -1 -9 -9
-9 -8 0 -12 4 -9 9 3 4 7 8 9 8 2 0 6 -4 9 -8z m196 -1 c0 -6 -4 -12 -8 -15
-5 -3 -9 1 -9 9 0 8 4 15 9 15 4 0 8 -4 8 -9z m-1260 -21 c0 -5 -2 -10 -4 -10
-3 0 -8 5 -11 10 -3 6 -1 10 4 10 6 0 11 -4 11 -10z m74 -6 c3 -8 2 -12 -4 -9
-6 3 -10 10 -10 16 0 14 7 11 14 -7z m522 -8 c0 -14 -3 -23 -7 -20 -6 3 -6 22
0 42 3 10 7 -2 7 -22z m240 -10 c-2 -38 -12 -39 -12 -1 0 18 3 32 7 30 3 -3 5
-15 5 -29z m39 16 c-3 -3 -11 0 -18 7 -9 10 -8 11 6 5 10 -3 15 -9 12 -12z
m281 -7 c1 -8 -5 -20 -14 -27 -15 -11 -15 -11 -6 2 6 8 10 23 8 33 -1 11 0 16
4 13 3 -4 7 -13 8 -21z m164 17 c0 -5 -7 -9 -15 -9 -8 0 -12 4 -9 9 3 4 9 8
15 8 5 0 9 -4 9 -8z m80 4 c0 -3 -4 -8 -10 -11 -5 -3 -10 -1 -10 4 0 6 5 11
10 11 6 0 10 -2 10 -4z m-1480 -10 c0 -2 -8 -10 -17 -17 -16 -13 -17 -12 -4 4
13 16 21 21 21 13z m115 -5 c3 -5 2 -12 -3 -15 -5 -3 -9 1 -9 9 0 17 3 19 12
6z m105 -12 c0 -5 -4 -9 -8 -9 -5 0 -9 7 -9 15 0 8 4 12 9 9 4 -3 8 -9 8 -15z
m399 8 c8 -10 7 -14 -2 -14 -8 0 -14 6 -14 14 0 7 1 13 2 13 2 0 8 -6 14 -13z
m577 -13 c1 -9 0 -13 -4 -10 -3 4 -7 14 -8 22 -1 9 0 13 4 10 3 -4 7 -14 8
-22z m101 13 c0 -8 -6 -14 -14 -14 -9 0 -10 4 -2 14 6 7 12 13 14 13 1 0 2 -6
2 -13z m-923 -6 c-7 -8 -74 -9 -69 -1 2 3 19 6 39 6 19 0 33 -3 30 -5z m110
-2 c3 -2 -15 -5 -39 -5 -24 0 -42 3 -40 6 5 8 72 7 79 -1z m81 2 c-9 -8 -36
-10 -30 -2 2 4 11 8 20 8 8 0 13 -3 10 -6z m790 -10 c3 -5 2 -12 -3 -15 -5 -3
-9 1 -9 9 0 17 3 19 12 6z m-1201 -9 c3 -5 -1 -9 -9 -9 -8 0 -12 4 -9 9 3 4 7
8 9 8 2 0 6 -4 9 -8z m651 -2 c3 -6 -1 -7 -9 -4 -18 7 -21 14 -7 14 6 0 13 -4
16 -10z m279 -2 c-3 -4 -9 -8 -15 -8 -5 0 -9 4 -9 8 0 5 7 9 15 9 8 0 12 -4 9
-9z m322 0 c-10 -6 -22 -6 -26 -2 -5 5 3 10 18 11 22 1 24 0 8 -9z m-1369 -13
c0 -8 -4 -12 -9 -9 -5 3 -6 10 -3 15 9 13 12 11 12 -6z m339 -5 c0 -12 -4 -16
-9 -11 -5 5 -6 14 -3 20 10 15 12 14 12 -9z m165 3 c13 -16 12 -17 -3 -4 -10
7 -18 15 -18 17 0 8 8 3 21 -13z m-301 3 c0 -3 -4 -8 -10 -11 -5 -3 -10 -1
-10 4 0 6 5 11 10 11 6 0 10 -2 10 -4z m100 -6 c0 -5 -4 -10 -10 -10 -5 0 -10
5 -10 10 0 6 5 10 10 10 6 0 10 -4 10 -10z m244 2 c3 -5 -1 -9 -9 -9 -8 0 -12
4 -9 9 3 4 7 8 9 8 2 0 6 -4 9 -8z m276 2 c0 -8 -19 -13 -24 -6 -3 5 1 9 9 9
8 0 15 -2 15 -3z m31 -11 c13 -16 12 -17 -3 -4 -17 13 -22 21 -14 21 2 0 10
-8 17 -17z m146 -2 c0 -11 -5 -18 -9 -15 -4 3 -5 11 -1 19 7 21 12 19 10 -4z
m74 -4 c-10 -9 -11 -8 -5 6 3 10 9 15 12 12 3 -3 0 -11 -7 -18z m45 -22 c0
-13 -3 -22 -7 -20 -4 3 -6 13 -4 23 1 9 -2 24 -8 32 -9 12 -9 13 3 2 8 -7 15
-23 16 -37z m-640 1 c0 -19 -3 -33 -7 -31 -7 5 -4 65 4 65 1 0 3 -15 3 -34z
m565 17 c13 -16 12 -17 -3 -4 -17 13 -22 21 -14 21 2 0 10 -8 17 -17z m-446
-11 c-3 -3 -11 0 -18 7 -9 10 -8 11 6 5 10 -3 15 -9 12 -12z m561 -7 c1 -8 -5
-20 -14 -27 -15 -11 -15 -11 -6 2 6 8 10 23 8 33 -1 11 0 16 4 13 3 -4 7 -13
8 -21z m40 -10 c-1 -8 -5 -17 -8 -21 -4 -3 -5 2 -4 13 2 10 -2 25 -8 33 -9 13
-9 13 6 2 9 -7 15 -19 14 -27z m-640 -18 c0 -28 -5 -44 -13 -44 -7 0 -9 5 -5
11 4 6 7 23 8 39 2 31 3 37 7 37 1 0 3 -19 3 -43z m160 18 c1 -8 -1 -17 -5
-19 -4 -3 -7 6 -7 19 0 25 8 25 12 0z m-600 3 c4 -7 4 -10 -1 -6 -4 4 -15 2
-24 -5 -14 -11 -14 -10 -2 6 16 20 18 21 27 5z m199 1 c3 -3 -6 -5 -19 -5 -14
1 -28 4 -31 7 -3 3 6 5 19 5 14 -1 28 -4 31 -7z m462 -6 c0 -9 -4 -10 -14 -2
-7 6 -13 12 -13 14 0 1 6 2 13 2 8 0 14 -6 14 -14z m68 8 c-9 -8 -36 -10 -30
-2 2 4 11 8 20 8 8 0 13 -3 10 -6z m130 -1 c-5 -8 -72 -7 -79 1 -3 2 15 5 39
5 24 0 42 -3 40 -6z m-530 -20 c3 -6 -1 -7 -9 -4 -18 7 -21 14 -7 14 6 0 13
-4 16 -10z m-87 -25 c-3 -3 -9 2 -12 12 -6 14 -5 15 5 6 7 -7 10 -15 7 -18z
m462 4 c0 -5 -4 -9 -8 -9 -5 0 -9 7 -9 15 0 8 4 12 9 9 4 -3 8 -9 8 -15z m157
6 c0 -8 -4 -12 -9 -9 -5 3 -6 10 -3 15 9 13 12 11 12 -6z m-32 -5 c3 -6 -1 -7
-9 -4 -18 7 -21 14 -7 14 6 0 13 -4 16 -10z m160 1 c-9 -8 -36 -10 -30 -2 2 4
11 8 20 8 8 0 13 -3 10 -6z m-824 -18 c13 -16 12 -17 -3 -4 -17 13 -22 21 -14
21 2 0 10 -8 17 -17z m-84 -8 c0 -8 -4 -12 -9 -9 -5 3 -6 10 -3 15 9 13 12 11
12 -6z m248 5 c-3 -5 -12 -10 -18 -10 -7 0 -6 4 3 10 19 12 23 12 15 0z m199
2 c3 -5 -1 -9 -9 -9 -8 0 -15 4 -15 9 0 4 4 8 9 8 6 0 12 -4 15 -8z m96 -6 c0
-2 -8 -10 -17 -17 -16 -13 -17 -12 -4 4 13 16 21 21 21 13z m-480 -16 c0 -5
-2 -10 -4 -10 -3 0 -8 5 -11 10 -3 6 -1 10 4 10 6 0 11 -4 11 -10z m217 -5 c0
-8 -4 -12 -9 -9 -5 3 -6 10 -3 15 9 13 12 11 12 -6z m333 9 c0 -8 -19 -13 -24
-6 -3 5 1 9 9 9 8 0 15 -2 15 -3z m25 -4 c3 -5 1 -10 -4 -10 -6 0 -11 5 -11
10 0 6 2 10 4 10 3 0 8 -4 11 -10z m65 1 c0 -6 -4 -12 -8 -15 -5 -3 -9 1 -9 9
0 8 4 15 9 15 4 0 8 -4 8 -9z m200 5 c0 -3 -4 -8 -10 -11 -5 -3 -10 -1 -10 4
0 6 5 11 10 11 6 0 10 -2 10 -4z m-576 -28 c-3 -4 -9 -8 -15 -8 -5 0 -9 4 -9
8 0 5 7 9 15 9 8 0 12 -4 9 -9z m151 4 c-3 -3 0 -11 6 -19 17 -20 5 -16 -14 5
-15 16 -15 19 -2 19 8 0 13 -3 10 -5z m-117 -27 c-3 -3 -9 2 -12 12 -6 14 -5
15 5 6 7 -7 10 -15 7 -18z m77 6 c3 -5 2 -12 -3 -15 -5 -3 -9 1 -9 9 0 17 3
19 12 6z"/>
</g>
</svg>
